<svg width="45" height="45" viewBox="0 0 45 45" fill="none" xmlns="http://www.w3.org/2000/svg">
<path d="M12.3205 25.9405L15.4488 19.7504V19.6988H11.8047V18.3944H17.0995V19.7172L13.9676 25.9405H12.3205Z" fill="#005B82"/>
<path d="M20.9896 26.1064C20.3558 26.1039 19.8105 25.9479 19.3536 25.6384C18.8991 25.3289 18.5491 24.8806 18.3035 24.2935C18.0603 23.7064 17.9399 23.0002 17.9424 22.1749C17.9424 21.352 18.064 20.6506 18.3071 20.0709C18.5528 19.4912 18.9028 19.0503 19.3573 18.7481C19.8142 18.4435 20.3583 18.2913 20.9896 18.2913C21.6209 18.2913 22.1637 18.4435 22.6182 18.7481C23.0751 19.0527 23.4263 19.4949 23.672 20.0746C23.9176 20.6519 24.0392 21.352 24.0367 22.1749C24.0367 23.0027 23.9139 23.7101 23.6683 24.2972C23.4251 24.8843 23.0763 25.3326 22.6218 25.6421C22.1674 25.9516 21.6233 26.1064 20.9896 26.1064ZM20.9896 24.7836C21.4219 24.7836 21.767 24.5662 22.0249 24.1314C22.2829 23.6966 22.4106 23.0444 22.4081 22.1749C22.4081 21.6025 22.3492 21.126 22.2313 20.7452C22.1158 20.3645 21.9512 20.0783 21.7375 19.8867C21.5263 19.6951 21.277 19.5993 20.9896 19.5993C20.5597 19.5993 20.2158 19.8142 19.9579 20.2441C19.6999 20.674 19.5697 21.3176 19.5673 22.1749C19.5673 22.7546 19.625 23.2385 19.7405 23.6266C19.8584 24.0123 20.0242 24.3021 20.2379 24.4962C20.4516 24.6878 20.7021 24.7836 20.9896 24.7836Z" fill="#005B82"/>
<path d="M29.3048 24.5256V24.1277C29.3048 23.8256 29.3687 23.548 29.4964 23.295C29.6266 23.0395 29.8145 22.8356 30.0602 22.6833C30.3083 22.5286 30.6104 22.4512 30.9666 22.4512C31.3277 22.4512 31.6311 22.5273 31.8767 22.6796C32.1248 22.8319 32.3115 23.0358 32.4368 23.2913C32.5645 23.5443 32.6284 23.8231 32.6284 24.1277V24.5256C32.6284 24.8278 32.5645 25.1066 32.4368 25.3621C32.309 25.6151 32.1211 25.8177 31.873 25.97C31.6249 26.1248 31.3228 26.2022 30.9666 26.2022C30.6055 26.2022 30.3021 26.1248 30.0565 25.97C29.8109 25.8177 29.6242 25.6151 29.4964 25.3621C29.3687 25.1066 29.3048 24.8278 29.3048 24.5256ZM30.3771 24.1277V24.5256C30.3771 24.7001 30.4188 24.8646 30.5023 25.0194C30.5883 25.1741 30.7431 25.2515 30.9666 25.2515C31.1901 25.2515 31.3424 25.1754 31.4235 25.0231C31.507 24.8708 31.5488 24.705 31.5488 24.5256V24.1277C31.5488 23.9484 31.5095 23.7814 31.4309 23.6266C31.3523 23.4718 31.1975 23.3945 30.9666 23.3945C30.7455 23.3945 30.592 23.4718 30.506 23.6266C30.4201 23.7814 30.3771 23.9484 30.3771 24.1277ZM25.4323 20.2073V19.8093C25.4323 19.5047 25.4974 19.2259 25.6276 18.9729C25.7578 18.7174 25.9457 18.5136 26.1913 18.3613C26.4394 18.209 26.7391 18.1328 27.0904 18.1328C27.4539 18.1328 27.7585 18.209 28.0042 18.3613C28.2498 18.5136 28.4365 18.7174 28.5642 18.9729C28.692 19.2259 28.7558 19.5047 28.7558 19.8093V20.2073C28.7558 20.5119 28.6907 20.7907 28.5605 21.0437C28.4328 21.2967 28.2449 21.4993 27.9968 21.6516C27.7512 21.8015 27.449 21.8764 27.0904 21.8764C26.7317 21.8764 26.4284 21.8002 26.1803 21.648C25.9346 21.4932 25.7479 21.2905 25.6202 21.04C25.4949 20.787 25.4323 20.5094 25.4323 20.2073ZM26.5119 19.8093V20.2073C26.5119 20.3866 26.5536 20.5524 26.6372 20.7047C26.7231 20.857 26.8742 20.9331 27.0904 20.9331C27.3164 20.9331 27.4699 20.857 27.551 20.7047C27.6345 20.5524 27.6762 20.3866 27.6762 20.2073V19.8093C27.6762 19.63 27.6369 19.463 27.5583 19.3082C27.4797 19.1535 27.3237 19.0761 27.0904 19.0761C26.8718 19.0761 26.7207 19.1547 26.6372 19.3119C26.5536 19.4691 26.5119 19.6349 26.5119 19.8093ZM25.9187 25.9405L31.1066 18.3944H32.072L26.884 25.9405H25.9187Z" fill="#005B82"/>
<path d="M44.0977 22.0488C44.0977 34.2261 34.2261 44.0977 22.0488 44.0977C9.8716 44.0977 0 34.2261 0 22.0488C0 9.8716 9.8716 0 22.0488 0C34.2261 0 44.0977 9.8716 44.0977 22.0488ZM5.2851 22.0488C5.2851 31.3072 12.7905 38.8126 22.0488 38.8126C31.3072 38.8126 38.8126 31.3072 38.8126 22.0488C38.8126 12.7905 31.3072 5.2851 22.0488 5.2851C12.7905 5.2851 5.2851 12.7905 5.2851 22.0488Z" fill="#69BB01" fill-opacity="0.15"/>
<path d="M22.0488 2.64255C22.0488 1.18311 23.2361 -0.0163396 24.6851 0.158159C27.8241 0.536191 30.856 1.58637 33.5693 3.24911C37.0364 5.37375 39.8484 8.41578 41.6945 12.0389C43.5405 15.662 44.3487 19.725 44.0297 23.7788C43.7106 27.8325 42.2768 31.7191 39.8867 35.0088C37.4966 38.2985 34.2433 40.8632 30.4865 42.4193C26.7298 43.9754 22.6158 44.4623 18.5996 43.8262C14.5834 43.1901 10.8213 41.4557 7.72923 38.8149C5.3094 36.7481 3.37374 34.1892 2.0442 31.3206C1.43049 29.9965 2.20434 28.4967 3.59235 28.0457C4.98036 27.5947 6.45317 28.3677 7.11647 29.6677C8.11171 31.6183 9.48355 33.3628 11.1616 34.796C13.5125 36.8039 16.3728 38.1225 19.4264 38.6062C22.4799 39.0898 25.6077 38.7196 28.464 37.5365C31.3203 36.3534 33.7938 34.4035 35.611 31.9023C37.4282 29.4011 38.5183 26.4462 38.7609 23.3641C39.0034 20.282 38.389 17.1929 36.9854 14.4383C35.5819 11.6836 33.4439 9.37077 30.8079 7.75541C28.9262 6.60234 26.8431 5.83673 24.6805 5.49295C23.2391 5.26384 22.0488 4.10199 22.0488 2.64255Z" fill="#8FBF00"/>
</svg>
