<svg width="34" height="7" viewBox="0 0 34 7" fill="none" xmlns="http://www.w3.org/2000/svg">
<path d="M33.1364 1.71705H32.4275C32.3002 1.71705 32.1894 1.83334 32.1839 1.83888L29.4979 5.35555C29.448 5.42201 29.365 5.41647 29.3207 5.35001L26.8396 1.83888C26.8396 1.83334 26.7455 1.71705 26.5738 1.71705H21.8111C21.728 1.71705 21.6615 1.65059 21.6615 1.56752V0.404524C21.6615 0.238382 21.5286 0.105469 21.3625 0.105469H19.6955H19.4518H19.2912C19.1251 0.105469 18.9922 0.238382 18.9922 0.404524V0.537438V4.92358C19.0254 5.47739 19.4242 6.09765 20.5207 6.09765H29.7194C29.9354 6.09765 30.0462 5.9592 30.0462 5.9592L33.1973 1.81673C33.2139 1.81673 33.2804 1.71705 33.1364 1.71705ZM26.6513 5.47185H22.4036C21.8111 5.47185 21.6726 5.30571 21.6726 4.84605V2.48684C21.6726 2.4093 21.7335 2.34285 21.8111 2.33731H24.281C24.3586 2.34285 24.4527 2.38715 24.5026 2.44807L26.7178 5.35555C26.7566 5.42201 26.7344 5.47185 26.6513 5.47185Z" fill="#008B3B"/>
<path d="M14.543 0.00553756L14.2384 0H14.0833H13.7787V0.00553756C10.7605 0.0941466 9.83006 1.51189 9.70822 2.80226H8.70583H8.41786H7.421H7.34901H6.85058H5.84819C5.77066 2.8078 5.70974 2.86872 5.70974 2.95179V3.32838C5.70974 3.40591 5.77066 3.47236 5.84819 3.4779H6.85058H7.2604C7.34347 3.48344 7.41547 3.5499 7.41547 3.63297V4.45814V4.86242C7.36562 5.28331 6.97796 5.43284 6.09187 5.43838C3.81019 5.383 2.59735 4.41384 2.59735 3.09024C2.59735 1.72787 3.87664 0.736562 6.2857 0.736562H6.87274H8.54523C8.62276 0.731024 8.68368 0.670105 8.68368 0.587034V0.232598C8.68368 0.155066 8.62276 0.088609 8.54523 0.0830709H6.91704H6.87827H5.69867C1.14638 0.0830709 0 1.72234 0 3.07916C0 4.44153 1.14638 6.07525 5.69867 6.07525H7.40993C8.30709 6.07525 8.94951 6.0088 9.45901 5.71528C9.64731 5.60452 9.91313 5.39961 9.9519 5.05071V5.04518C9.9519 5.02302 9.95744 5.00087 9.95744 4.97872V4.75166C9.97405 4.6409 10.0239 4.63536 10.035 4.63536C10.0793 4.62982 10.1125 4.6409 10.179 4.70182C10.7217 5.48822 11.8071 6.11402 13.7787 6.17494V6.18048H14.0833H14.2384H14.543V6.17494C17.7938 6.08079 18.6245 4.44706 18.6245 3.07916C18.6245 1.73341 17.7938 0.0996846 14.543 0.00553756ZM14.1885 5.57129C13.164 5.58237 12.3167 4.48029 12.3056 3.11793C12.289 1.75557 13.1141 0.636877 14.1387 0.631339C15.1632 0.620263 16.005 1.72234 16.0216 3.0847C16.0327 4.44706 15.2131 5.56022 14.1885 5.57129Z" fill="#E30613"/>
</svg>
