<svg width="36" height="16" viewBox="0 0 36 16" fill="none" xmlns="http://www.w3.org/2000/svg">
<path d="M3.14868 9.42082L3.38351 6.84302L1.2406 8.33697L0.0664062 6.28645L2.4148 5.2026L0.0664062 4.11875L1.2406 2.06822L3.38351 3.56218L3.14868 0.984375H5.49707L5.26223 3.56218L7.40514 2.06822L8.57934 4.11875L6.23094 5.2026L8.57934 6.28645L7.40514 8.33697L5.26223 6.84302L5.49707 9.42082H3.14868Z" fill="#6CCF00"/>
<path d="M17.395 15.9825L19.8608 0.984375H22.7963L20.3305 15.9825H17.395ZM10.7314 12.5552L11.2305 9.62587H23.3247L22.8257 12.5552H10.7314ZM12.1111 15.9825L14.5769 0.984375H17.5124L15.0466 15.9825H12.1111ZM11.5827 7.341L12.0817 4.41168H24.176L23.677 7.341H11.5827Z" fill="#6CCF00"/>
<path d="M29.9556 9.42082L30.1904 6.84302L28.0475 8.33697L26.8733 6.28645L29.2217 5.2026L26.8733 4.11875L28.0475 2.06822L30.1904 3.56218L29.9556 0.984375H32.304L32.0692 3.56218L34.2121 2.06822L35.3863 4.11875L33.0379 5.2026L35.3863 6.28645L34.2121 8.33697L32.0692 6.84302L32.304 9.42082H29.9556Z" fill="#6CCF00"/>
</svg>
