<svg width="44" height="43" viewBox="0 0 44 43" fill="none" xmlns="http://www.w3.org/2000/svg">
<rect x="0.898438" y="0.42334" width="42.4038" height="42.4038" rx="21.2019" fill="#BABABA"/>
<path d="M21.6264 16.7204C21.9364 16.7204 22.2337 16.5972 22.4529 16.378C22.6721 16.1588 22.7952 15.8616 22.7952 15.5516C22.7952 15.2416 22.6721 14.9443 22.4529 14.7251C22.2337 14.5059 21.9364 14.3828 21.6264 14.3828C21.3164 14.3828 21.0191 14.5059 20.8 14.7251C20.5808 14.9443 20.4576 15.2416 20.4576 15.5516C20.4576 15.8616 20.5808 16.1588 20.8 16.378C21.0191 16.5972 21.3164 16.7204 21.6264 16.7204ZM22.7734 11.1959C22.4492 10.9324 22.0442 10.7886 21.6264 10.7886C21.2087 10.7886 20.8036 10.9324 20.4794 11.1959L12.6844 17.5307C11.7369 18.3037 12.2823 19.8371 13.5041 19.8371H13.8345V26.3824C12.9088 26.8546 12.2761 27.8161 12.2761 28.9272V29.9667C12.2761 30.1733 12.3582 30.3715 12.5043 30.5177C12.6504 30.6638 12.8486 30.7459 13.0553 30.7459H30.1976C30.4042 30.7459 30.6024 30.6638 30.7485 30.5177C30.8947 30.3715 30.9768 30.1733 30.9768 29.9667V28.9272C30.9768 27.8177 30.3441 26.8546 29.4184 26.3824V19.8371H29.7488C30.9705 19.8371 31.516 18.3021 30.5669 17.5307L22.7749 11.1943L22.7734 11.1959ZM21.4643 12.4052C21.5107 12.3677 21.5684 12.3473 21.628 12.3473C21.6875 12.3473 21.7453 12.3677 21.7916 12.4052L29.0147 18.2788H14.2365L21.4643 12.4036V12.4052ZM27.86 26.0707H26.3016V19.8371H27.86V26.0707ZM24.7432 26.0707H22.4056V19.8371H24.7432V26.0707ZM20.8472 26.0707H18.5096V19.8371H20.8472V26.0707ZM28.1202 27.6291C28.8371 27.6291 29.4184 28.2104 29.4184 28.9272V29.1875H13.8345V28.9272C13.8345 28.2104 14.4157 27.6291 15.1326 27.6291H28.1202ZM16.9512 26.0707H15.3928V19.8371H16.9512V26.0707Z" fill="white"/>
</svg>
