<svg width="15" height="15" viewBox="0 0 15 15" fill="none" xmlns="http://www.w3.org/2000/svg">
<path d="M3.95833 2.5C3.57156 2.5 3.20063 2.65365 2.92714 2.92714C2.65365 3.20063 2.5 3.57156 2.5 3.95833V5.625C2.5 6.01177 2.65365 6.38271 2.92714 6.6562C3.20063 6.92969 3.57156 7.08333 3.95833 7.08333H5.625C6.01177 7.08333 6.38271 6.92969 6.6562 6.6562C6.92969 6.38271 7.08333 6.01177 7.08333 5.625V3.95833C7.08333 3.57156 6.92969 3.20063 6.6562 2.92714C6.38271 2.65365 6.01177 2.5 5.625 2.5H3.95833ZM3.95833 7.91667C3.57156 7.91667 3.20063 8.07031 2.92714 8.3438C2.65365 8.61729 2.5 8.98823 2.5 9.375V11.0417C2.5 11.4284 2.65365 11.7994 2.92714 12.0729C3.20063 12.3464 3.57156 12.5 3.95833 12.5H5.625C6.01177 12.5 6.38271 12.3464 6.6562 12.0729C6.92969 11.7994 7.08333 11.4284 7.08333 11.0417V9.375C7.08333 8.98823 6.92969 8.61729 6.6562 8.3438C6.38271 8.07031 6.01177 7.91667 5.625 7.91667H3.95833ZM9.375 2.5C8.98823 2.5 8.61729 2.65365 8.3438 2.92714C8.07031 3.20063 7.91667 3.57156 7.91667 3.95833V5.625C7.91667 6.01177 8.07031 6.38271 8.3438 6.6562C8.61729 6.92969 8.98823 7.08333 9.375 7.08333H11.0417C11.4284 7.08333 11.7994 6.92969 12.0729 6.6562C12.3464 6.38271 12.5 6.01177 12.5 5.625V3.95833C12.5 3.57156 12.3464 3.20063 12.0729 2.92714C11.7994 2.65365 11.4284 2.5 11.0417 2.5H9.375ZM9.375 7.91667C8.98823 7.91667 8.61729 8.07031 8.3438 8.3438C8.07031 8.61729 7.91667 8.98823 7.91667 9.375V11.0417C7.91667 11.4284 8.07031 11.7994 8.3438 12.0729C8.61729 12.3464 8.98823 12.5 9.375 12.5H11.0417C11.4284 12.5 11.7994 12.3464 12.0729 12.0729C12.3464 11.7994 12.5 11.4284 12.5 11.0417V9.375C12.5 8.98823 12.3464 8.61729 12.0729 8.3438C11.7994 8.07031 11.4284 7.91667 11.0417 7.91667H9.375ZM0 2.60417C0 1.9135 0.274367 1.25112 0.762743 0.762743C1.25112 0.274367 1.9135 0 2.60417 0H12.3958C13.0865 0 13.7489 0.274367 14.2373 0.762743C14.7256 1.25112 15 1.9135 15 2.60417V12.3958C15 13.0865 14.7256 13.7489 14.2373 14.2373C13.7489 14.7256 13.0865 15 12.3958 15H2.60417C1.9135 15 1.25112 14.7256 0.762743 14.2373C0.274367 13.7489 0 13.0865 0 12.3958V2.60417ZM2.60417 1.04167C2.18977 1.04167 1.79234 1.20629 1.49931 1.49931C1.20629 1.79234 1.04167 2.18977 1.04167 2.60417V12.3958C1.04167 12.8102 1.20629 13.2077 1.49931 13.5007C1.79234 13.7937 2.18977 13.9583 2.60417 13.9583H12.3958C12.8102 13.9583 13.2077 13.7937 13.5007 13.5007C13.7937 13.2077 13.9583 12.8102 13.9583 12.3958V2.60417C13.9583 2.18977 13.7937 1.79234 13.5007 1.49931C13.2077 1.20629 12.8102 1.04167 12.3958 1.04167H2.60417Z" fill="#005B82"/>
</svg>
