<svg width="25" height="25" viewBox="0 0 25 25" fill="none" xmlns="http://www.w3.org/2000/svg">
<g clipPath="url(#clip0_9765_35775)">
<path d="M12.2865 21.8737H5.20833C4.6558 21.8737 4.12589 21.6542 3.73519 21.2635C3.34449 20.8728 3.125 20.3429 3.125 19.7904V7.29036C3.125 6.73783 3.34449 6.20793 3.73519 5.81723C4.12589 5.42652 4.6558 5.20703 5.20833 5.20703H17.7083C18.2609 5.20703 18.7908 5.42652 19.1815 5.81723C19.5722 6.20793 19.7917 6.73783 19.7917 7.29036V11.457" stroke="#102572" strokeWidth="2" strokeLinecap="round" strokeLinejoin="round"/>
<path d="M18.7487 22.9154C21.0499 22.9154 22.9154 21.0499 22.9154 18.7487C22.9154 16.4475 21.0499 14.582 18.7487 14.582C16.4475 14.582 14.582 16.4475 14.582 18.7487C14.582 21.0499 16.4475 22.9154 18.7487 22.9154Z" stroke="#102572" strokeWidth="2" strokeLinecap="round" strokeLinejoin="round"/>
<path d="M15.625 3.125V7.29167" stroke="#102572" strokeWidth="2" strokeLinecap="round" strokeLinejoin="round"/>
<path d="M7.29297 3.125V7.29167" stroke="#102572" strokeWidth="2" strokeLinecap="round" strokeLinejoin="round"/>
<path d="M3.125 11.457H19.7917" stroke="#102572" strokeWidth="2" strokeLinecap="round" strokeLinejoin="round"/>
<path d="M18.75 17.1836V18.7503L19.7917 19.7919" stroke="#102572" strokeWidth="2" strokeLinecap="round" strokeLinejoin="round"/>
</g>
<defs>
<clipPath id="clip0_9765_35775">
<rect width="25" height="25" fill="white"/>
</clipPath>
</defs>
</svg>
