<svg width="43" height="43" viewBox="0 0 43 43" fill="none" xmlns="http://www.w3.org/2000/svg">
<rect x="0.0625" y="0.422852" width="42.4038" height="42.4038" rx="21.2019" fill="#BABABA"/>
<path d="M30.5262 13.301C30.9428 13.301 31.3422 13.4664 31.6368 13.761C31.9313 14.0555 32.0968 14.455 32.0968 14.8715V27.4356C32.0968 27.8521 31.9313 28.2516 31.6368 28.5461C31.3422 28.8406 30.9428 29.0061 30.5262 29.0061H11.6801C11.2636 29.0061 10.8641 28.8406 10.5696 28.5461C10.275 28.2516 10.1096 27.8521 10.1096 27.4356V14.8715C10.1096 14.455 10.275 14.0555 10.5696 13.761C10.8641 13.4664 11.2636 13.301 11.6801 13.301H30.5262ZM11.6801 11.7305C10.847 11.7305 10.0481 12.0614 9.45905 12.6505C8.86999 13.2395 8.53906 14.0384 8.53906 14.8715V27.4356C8.53906 28.2686 8.86999 29.0676 9.45905 29.6566C10.0481 30.2457 10.847 30.5766 11.6801 30.5766H30.5262C31.3593 30.5766 32.1582 30.2457 32.7473 29.6566C33.3363 29.0676 33.6673 28.2686 33.6673 27.4356V14.8715C33.6673 14.0384 33.3363 13.2395 32.7473 12.6505C32.1582 12.0614 31.3593 11.7305 30.5262 11.7305H11.6801Z" fill="white"/>
<path d="M11.6797 17.233C11.6797 17.0247 11.7624 16.825 11.9097 16.6778C12.0569 16.5305 12.2567 16.4478 12.4649 16.4478H15.606C15.8142 16.4478 16.014 16.5305 16.1612 16.6778C16.3085 16.825 16.3912 17.0247 16.3912 17.233V18.8035C16.3912 19.0118 16.3085 19.2115 16.1612 19.3588C16.014 19.506 15.8142 19.5888 15.606 19.5888H12.4649C12.2567 19.5888 12.0569 19.506 11.9097 19.3588C11.7624 19.2115 11.6797 19.0118 11.6797 18.8035V17.233ZM11.6797 21.9445C11.6797 21.7363 11.7624 21.5366 11.9097 21.3893C12.0569 21.242 12.2567 21.1593 12.4649 21.1593H20.3175C20.5258 21.1593 20.7255 21.242 20.8728 21.3893C21.02 21.5366 21.1028 21.7363 21.1028 21.9445C21.1028 22.1528 21.02 22.3525 20.8728 22.4998C20.7255 22.6471 20.5258 22.7298 20.3175 22.7298H12.4649C12.2567 22.7298 12.0569 22.6471 11.9097 22.4998C11.7624 22.3525 11.6797 22.1528 11.6797 21.9445ZM11.6797 25.0856C11.6797 24.8773 11.7624 24.6776 11.9097 24.5303C12.0569 24.383 12.2567 24.3003 12.4649 24.3003H14.0355C14.2437 24.3003 14.4435 24.383 14.5907 24.5303C14.738 24.6776 14.8207 24.8773 14.8207 25.0856C14.8207 25.2938 14.738 25.4936 14.5907 25.6408C14.4435 25.7881 14.2437 25.8708 14.0355 25.8708H12.4649C12.2567 25.8708 12.0569 25.7881 11.9097 25.6408C11.7624 25.4936 11.6797 25.2938 11.6797 25.0856ZM16.3912 25.0856C16.3912 24.8773 16.474 24.6776 16.6212 24.5303C16.7685 24.383 16.9682 24.3003 17.1765 24.3003H18.747C18.9553 24.3003 19.155 24.383 19.3023 24.5303C19.4495 24.6776 19.5323 24.8773 19.5323 25.0856C19.5323 25.2938 19.4495 25.4936 19.3023 25.6408C19.155 25.7881 18.9553 25.8708 18.747 25.8708H17.1765C16.9682 25.8708 16.7685 25.7881 16.6212 25.6408C16.474 25.4936 16.3912 25.2938 16.3912 25.0856ZM21.1028 25.0856C21.1028 24.8773 21.1855 24.6776 21.3328 24.5303C21.48 24.383 21.6798 24.3003 21.888 24.3003H23.4585C23.6668 24.3003 23.8665 24.383 24.0138 24.5303C24.1611 24.6776 24.2438 24.8773 24.2438 25.0856C24.2438 25.2938 24.1611 25.4936 24.0138 25.6408C23.8665 25.7881 23.6668 25.8708 23.4585 25.8708H21.888C21.6798 25.8708 21.48 25.7881 21.3328 25.6408C21.1855 25.4936 21.1028 25.2938 21.1028 25.0856ZM25.8143 25.0856C25.8143 24.8773 25.897 24.6776 26.0443 24.5303C26.1916 24.383 26.3913 24.3003 26.5996 24.3003H28.1701C28.3783 24.3003 28.5781 24.383 28.7253 24.5303C28.8726 24.6776 28.9553 24.8773 28.9553 25.0856C28.9553 25.2938 28.8726 25.4936 28.7253 25.6408C28.5781 25.7881 28.3783 25.8708 28.1701 25.8708H26.5996C26.3913 25.8708 26.1916 25.7881 26.0443 25.6408C25.897 25.4936 25.8143 25.2938 25.8143 25.0856Z" fill="white"/>
</svg>
