<svg width="30" height="30" viewBox="0 0 30 30" fill="none" xmlns="http://www.w3.org/2000/svg">
<g clip-path="url(#clip0_10271_36997)">
<path d="M7.5 26.25C8.88071 26.25 10 25.1307 10 23.75C10 22.3693 8.88071 21.25 7.5 21.25C6.11929 21.25 5 22.3693 5 23.75C5 25.1307 6.11929 26.25 7.5 26.25Z" stroke="#549E04" strokeWidth ="2" stroke-linecap="round" stroke-linejoin="round"/>
<path d="M21.25 26.25C22.6307 26.25 23.75 25.1307 23.75 23.75C23.75 22.3693 22.6307 21.25 21.25 21.25C19.8693 21.25 18.75 22.3693 18.75 23.75C18.75 25.1307 19.8693 26.25 21.25 26.25Z" stroke="#549E04" strokeWidth ="2" stroke-linecap="round" stroke-linejoin="round"/>
<path d="M21.25 21.25H7.5V3.75H5" stroke="#549E04" strokeWidth ="2" stroke-linecap="round" stroke-linejoin="round"/>
<path d="M23.9287 15.0025L23.75 16.25H7.5M7.5 6.25L15.0063 6.78625L7.5 6.25Z" stroke="#549E04" strokeWidth ="2" stroke-linecap="round" stroke-linejoin="round"/>
<path d="M22.5 3.75V11.25M18.75 7.5H26.25H18.75Z" stroke="#549E04" strokeWidth ="2" stroke-linecap="round" stroke-linejoin="round"/>
</g>
<defs>
<clipPath id="clip0_10271_36997">
<rect width="30" height="30" fill="white"/>
</clipPath>
</defs>
</svg>
