<svg width="44" height="44" viewBox="0 0 44 44" fill="none" xmlns="http://www.w3.org/2000/svg">
<path d="M35.9263 25.1931V22.3359C35.9263 21.5782 35.6253 20.8515 35.0895 20.3156C34.5537 19.7798 33.827 19.4788 33.0692 19.4788H4.49777C3.74001 19.4788 3.01328 19.7798 2.47746 20.3156C1.94164 20.8515 1.64063 21.5782 1.64062 22.3359V39.4788C1.64063 40.2366 1.94164 40.9633 2.47746 41.4991C3.01328 42.0349 3.74001 42.3359 4.49777 42.3359H33.0692C33.827 42.3359 34.5537 42.0349 35.0895 41.4991C35.6253 40.9633 35.9263 40.2366 35.9263 39.4788V36.6217M35.9263 25.1931H24.4978C22.9822 25.1931 21.5288 25.7951 20.4572 26.8668C19.3855 27.9384 18.7835 29.3918 18.7835 30.9074C18.7835 32.4229 19.3855 33.8763 20.4572 34.948C21.5288 36.0196 22.9822 36.6217 24.4978 36.6217H35.9263M35.9263 25.1931C37.4419 25.1931 38.8953 25.7951 39.9669 26.8668C41.0386 27.9384 41.6406 29.3918 41.6406 30.9074C41.6406 32.4229 41.0386 33.8763 39.9669 34.948C38.8953 36.0196 37.4419 36.6217 35.9263 36.6217M10.2121 19.4788V10.9074C10.2121 8.63408 11.1151 6.45391 12.7226 4.84645C14.33 3.239 16.5102 2.33594 18.7835 2.33594C21.0568 2.33594 23.2369 3.239 24.8444 4.84645C26.4519 6.45391 27.3549 8.63408 27.3549 10.9074V19.4788M34.4978 30.9074H37.3549M28.7835 30.9074H31.6406M23.0692 30.9074H25.9263" stroke="white" stroke-width="3"/>
</svg>
