<svg width="10" height="13" viewBox="0 0 10 13" fill="none" xmlns="http://www.w3.org/2000/svg">
<path d="M3.5 0.632812C3.10218 0.632813 2.72064 0.790848 2.43934 1.07215C2.15804 1.35346 2 1.73499 2 2.13281V9.63281C2 10.0306 2.15804 10.4122 2.43934 10.6935C2.72064 10.9748 3.10218 11.1328 3.5 11.1328H8C8.39782 11.1328 8.77936 10.9748 9.06066 10.6935C9.34196 10.4122 9.5 10.0306 9.5 9.63281V2.13281C9.5 1.73499 9.34196 1.35346 9.06066 1.07215C8.77936 0.790848 8.39782 0.632813 8 0.632812H3.5ZM2.75 2.13281C2.75 1.9339 2.82902 1.74313 2.96967 1.60248C3.11032 1.46183 3.30109 1.38281 3.5 1.38281H8C8.19891 1.38281 8.38968 1.46183 8.53033 1.60248C8.67098 1.74313 8.75 1.9339 8.75 2.13281V9.63281C8.75 9.83173 8.67098 10.0225 8.53033 10.1631C8.38968 10.3038 8.19891 10.3828 8 10.3828H3.5C3.30109 10.3828 3.11032 10.3038 2.96967 10.1631C2.82902 10.0225 2.75 9.83173 2.75 9.63281V2.13281ZM0.5 3.63281C0.500007 3.36951 0.569319 3.11086 0.700971 2.88283C0.832624 2.65481 1.02198 2.46546 1.25 2.33381V10.0078C1.25 10.5051 1.44754 10.982 1.79917 11.3336C2.15081 11.6853 2.62772 11.8828 3.125 11.8828H7.799C7.66735 12.1108 7.478 12.3002 7.24998 12.4318C7.02196 12.5635 6.7633 12.6328 6.5 12.6328H3.125C2.42881 12.6328 1.76113 12.3563 1.26884 11.864C0.776562 11.3717 0.5 10.704 0.5 10.0078V3.63281Z" fill="#6CCF00"/>
</svg>
