<svg width="27" height="27" viewBox="0 0 27 27" fill="none" xmlns="http://www.w3.org/2000/svg">
<g clipPath="url(#clip0_4044_18630)">
<path d="M4.41797 8.56934V7.486C4.41797 6.91137 4.64669 6.36027 5.05383 5.95394C5.46096 5.54761 6.01316 5.31934 6.58893 5.31934H8.75989" stroke="#6CCF00" strokeWidth="2" strokeLinecap="round" strokeLinejoin="round"/>
<path d="M4.41797 19.4004V20.4837C4.41797 21.0584 4.64669 21.6095 5.05383 22.0158C5.46096 22.4221 6.01316 22.6504 6.58893 22.6504H8.75989" stroke="#6CCF00" strokeWidth="2" strokeLinecap="round" strokeLinejoin="round"/>
<path d="M17.4414 5.31934H19.6124C20.1881 5.31934 20.7403 5.54761 21.1475 5.95394C21.5546 6.36027 21.7833 6.91137 21.7833 7.486V8.56934" stroke="#6CCF00" strokeWidth="2" strokeLinecap="round" strokeLinejoin="round"/>
<path d="M17.4414 22.6504H19.6124C20.1881 22.6504 20.7403 22.4221 21.1475 22.0158C21.5546 21.6095 21.7833 21.0584 21.7833 20.4837V19.4004" stroke="#6CCF00" strokeWidth="2" strokeLinecap="round" strokeLinejoin="round"/>
<path d="M5.5 13.9844H20.6967" stroke="#6CCF00" strokeWidth="2" strokeLinecap="round" strokeLinejoin="round"/>
</g>
<defs>
<clipPath id="clip0_4044_18630">
<rect width="26.0515" height="25.9967" fill="white" transform="translate(0.0742188 0.986328)"/>
</clipPath>
</defs>
</svg>
