<svg width="33" height="34" viewBox="0 0 33 34" fill="none" xmlns="http://www.w3.org/2000/svg">
<path d="M16.2457 23.9368C14.8254 23.9368 13.437 23.5156 12.256 22.7265C11.0751 21.9374 10.1546 20.8159 9.6111 19.5037C9.06756 18.1915 8.92535 16.7475 9.20244 15.3545C9.47953 13.9615 10.1635 12.6819 11.1678 11.6776C12.1721 10.6733 13.4517 9.9893 14.8447 9.71221C16.2378 9.43512 17.6817 9.57733 18.9939 10.1209C20.3061 10.6644 21.4277 11.5848 22.2168 12.7658C23.0058 13.9468 23.427 15.3352 23.427 16.7555C23.4373 17.7014 23.2585 18.6398 22.9013 19.5157C22.544 20.3917 22.0154 21.1874 21.3465 21.8563C20.6776 22.5252 19.8819 23.0538 19.006 23.411C18.1301 23.7683 17.1916 23.947 16.2457 23.9368ZM16.2457 11.968C15.6131 11.9536 14.9841 12.0676 14.3967 12.3031C13.8094 12.5386 13.2759 12.8907 12.8284 13.3382C12.3809 13.7856 12.0288 14.3191 11.7933 14.9065C11.5578 15.4939 11.4438 16.1229 11.4582 16.7555C11.4438 17.3881 11.5578 18.0171 11.7933 18.6045C12.0288 19.1919 12.3809 19.7254 12.8284 20.1729C13.2759 20.6203 13.8094 20.9724 14.3967 21.2079C14.9841 21.4434 15.6131 21.5574 16.2457 21.543C16.8784 21.5574 17.5074 21.4434 18.0947 21.2079C18.6821 20.9724 19.2156 20.6203 19.6631 20.1729C20.1106 19.7254 20.4627 19.1919 20.6982 18.6045C20.9337 18.0171 21.0477 17.3881 21.0333 16.7555C21.0477 16.1229 20.9337 15.4939 20.6982 14.9065C20.4627 14.3191 20.1106 13.7856 19.6631 13.3382C19.2156 12.8907 18.6821 12.5386 18.0947 12.3031C17.5074 12.0676 16.8784 11.9536 16.2457 11.968Z" fill="#6CCF00"/>
<path d="M32.1691 10.8246L29.3444 5.93174C29.0679 5.45201 28.6335 5.08309 28.1153 4.88795C27.5971 4.69282 27.0273 4.68355 26.503 4.86173L23.5898 5.84676C23.0878 5.50875 22.5631 5.20562 22.0195 4.93952L21.4175 1.92458C21.309 1.38173 21.0157 0.893265 20.5875 0.542354C20.1594 0.191443 19.6228 -0.000219083 19.0692 1.87934e-07H13.4199C12.8663 -0.000219083 12.3298 0.191443 11.9016 0.542354C11.4735 0.893265 11.1802 1.38173 11.0717 1.92458L10.4696 4.93952C9.91993 5.20271 9.38922 5.50385 8.88137 5.84078L5.98492 4.86173C5.46097 4.68417 4.89167 4.69376 4.374 4.88887C3.85634 5.08397 3.42233 5.45253 3.14592 5.93174L0.321279 10.8246C0.0445737 11.3037 -0.057629 11.8638 0.0320534 12.4098C0.121736 12.9557 0.397766 13.4538 0.813197 13.8192L3.12437 15.8503C3.10403 16.1519 3.07889 16.4511 3.07889 16.7563C3.07889 17.0651 3.09086 17.3703 3.1124 17.6731L0.814394 19.6935C0.398575 20.0586 0.122086 20.5564 0.0319647 21.1024C-0.0581567 21.6484 0.0436561 22.2087 0.320082 22.6881L3.14472 27.5809C3.42104 28.0609 3.85537 28.43 4.37357 28.6254C4.89177 28.8207 5.46172 28.8302 5.98611 28.6521L8.89932 27.6659C9.40119 28.0045 9.92588 28.3081 10.4696 28.5743L11.0717 31.5881C11.1802 32.1309 11.4735 32.6194 11.9016 32.9703C12.3298 33.3212 12.8663 33.5129 13.4199 33.5126H18.6383V31.1189H13.4199L12.5702 26.87C11.3946 26.4333 10.3034 25.7967 9.34456 24.9885L5.21891 26.384L2.39428 21.4912L5.65577 18.6247C5.43263 17.3869 5.4298 16.1195 5.6474 14.8808L2.39428 12.0215L5.21891 7.12862L9.32062 8.517C10.2863 7.70759 11.386 7.07326 12.5702 6.64269L13.4199 2.39376H19.0692L19.919 6.64269C21.0945 7.07944 22.1858 7.71596 23.1446 8.52418L27.2702 7.12862L30.0949 12.0215L26.746 14.9562L28.3235 16.7563L31.6748 13.8192C32.0906 13.4541 32.3671 12.9562 32.4572 12.4102C32.5473 11.8643 32.4455 11.3039 32.1691 10.8246Z" fill="#6CCF00"/>
<path d="M24.6215 28.9406L21.5216 25.8406L19.834 27.5282L24.6215 32.3158L32.9997 23.9376L31.3121 22.25L24.6215 28.9406Z" fill="#6CCF00"/>
</svg>
