<svg width="106" height="105" viewBox="0 0 106 105" fill="none" xmlns="http://www.w3.org/2000/svg">
<path d="M105.263 104.7H15.5312V28.7844L60.3901 0.299072L105.263 28.7844V104.7Z" fill="#ADADAD"/>
<path opacity="0.2" d="M105.263 104.7H15.5312V28.7844L60.3901 0.299072L105.263 28.7844V104.7Z" fill="black"/>
<path d="M100.197 19.8108H20.5859V101.743H100.197V19.8108Z" fill="#EBEBEB"/>
<path d="M28.3465 33.2678L93.2031 33.2678V30.6463L28.3465 30.6463V33.2678Z" fill="#DBDBDB"/>
<path d="M28.3465 39.885L93.2031 39.885V37.2635L28.3465 37.2635V39.885Z" fill="#DBDBDB"/>
<path d="M28.3465 46.51L93.2031 46.51V43.8885L28.3465 43.8885V46.51Z" fill="#DBDBDB"/>
<path d="M28.3465 53.1389L93.2031 53.1389V50.5174L28.3465 50.5174V53.1389Z" fill="#DBDBDB"/>
<path d="M28.3465 59.7639L93.2031 59.7639V57.1424L28.3465 57.1424V59.7639Z" fill="#DBDBDB"/>
<path d="M28.3465 66.3889L93.2031 66.3889V63.7674L28.3465 63.7674V66.3889Z" fill="#DBDBDB"/>
<path d="M28.3465 73.0061L93.2031 73.0061V70.3846L28.3465 70.3846V73.0061Z" fill="#DBDBDB"/>
<path d="M28.3465 79.6311L93.2031 79.6311V77.0096L28.3465 77.0096V79.6311Z" fill="#DBDBDB"/>
<path d="M28.3465 86.2561L93.2031 86.2561V83.6346L28.3465 83.6346V86.2561Z" fill="#DBDBDB"/>
<path d="M28.3465 92.8811L93.2031 92.8811V90.2596L28.3465 90.2596V92.8811Z" fill="#DBDBDB"/>
<path d="M105.263 47.7874V104.701H15.5312V47.7874C19.3847 49.9719 23.1737 52.2639 26.9913 54.4986C30.8089 56.7333 34.5907 59.054 38.3654 61.3746C42.5483 63.9341 46.7455 66.5293 50.9571 69.1603L51.0931 69.0815C51.0502 69.0815 51.0215 69.146 50.9857 69.1746L60.3973 75.0622C63.5201 73.0997 66.6645 71.1157 69.8016 69.1746C69.7658 69.1746 69.7372 69.1102 69.6942 69.0815C69.735 69.1116 69.7812 69.1334 69.8303 69.146C74.018 66.5293 78.2176 63.934 82.4292 61.3603C86.2062 59.054 89.9928 56.7668 93.7889 54.4986C97.6423 52.2639 101.41 49.9719 105.263 47.7874Z" fill="#ADADAD"/>
<g opacity="0.2">
<path d="M105.263 47.7874C101.639 50.3372 97.9503 52.8011 94.2974 55.2793C90.6445 57.7576 86.9272 60.1857 83.217 62.6137C79.3493 65.1493 75.4743 67.6609 71.5923 70.1487L71.2413 70.3851L60.9058 76.9818L60.3901 77.2898L59.8887 76.9818L49.5675 70.3779L49.2022 70.1487C45.3106 67.6562 41.4309 65.1397 37.5631 62.5994C33.8673 60.1881 30.1786 57.748 26.4971 55.2793C22.8442 52.7725 19.1555 50.3372 15.5312 47.7874C19.3847 49.9719 23.1737 52.2639 26.9913 54.4986C30.8089 56.7333 34.5907 59.054 38.3654 61.3746C42.5483 63.9341 46.7455 66.5293 50.9571 69.1603L60.3973 75.0622C63.5201 73.0997 66.6645 71.1157 69.8016 69.1746C73.9893 66.5579 78.1889 63.9627 82.4005 61.389C86.1775 59.0826 89.9641 56.7954 93.7602 54.5273C97.6423 52.2639 101.41 49.9719 105.263 47.7874Z" fill="black"/>
<path d="M51.0879 69.0803C51.0449 69.0803 51.0163 69.1448 50.9805 69.1734L49.548 70.3767C47.2989 72.2748 44.9926 74.0941 42.6505 75.8561C39.7855 78.0048 36.8703 80.1536 33.9337 82.2092C30.997 84.2648 28.0174 86.2632 24.9805 88.2042C21.9436 90.1453 18.8924 92.0433 15.7266 93.7838C18.4483 91.3987 21.2775 89.1712 24.1353 87.0009C26.9932 84.8307 29.9298 82.7034 32.8521 80.6549C35.7744 78.6064 38.7827 76.5866 41.8124 74.6456C44.2262 73.0985 46.683 71.5729 49.1827 70.1475C49.7628 69.8109 50.343 69.4814 50.9375 69.1591L51.0879 69.0803Z" fill="black"/>
<path d="M105.05 93.7838C101.884 92.0433 98.8116 90.1453 95.7962 88.2042C92.7808 86.2632 89.794 84.2434 86.8287 82.2092C83.8634 80.175 80.9698 78.0406 78.1119 75.8561C75.7841 74.0941 73.4778 72.2748 71.2431 70.3839C70.756 69.9828 70.2833 69.5817 69.8106 69.1734C69.7748 69.1734 69.7461 69.109 69.7031 69.0803C69.7439 69.1104 69.7901 69.1322 69.8392 69.1448L71.594 70.1475C74.0938 71.58 76.5362 73.0985 78.9643 74.6456C81.994 76.5866 84.9593 78.6064 87.9102 80.6549C90.8612 82.7034 93.7692 84.8235 96.627 87.0009C99.4849 89.1783 102.328 91.3987 105.05 93.7838Z" fill="black"/>
</g>
<path d="M100.12 55.5088C100.806 49.8061 96.7391 44.6271 91.0365 43.941C85.3339 43.255 80.1548 47.3217 79.4688 53.0243C78.7827 58.727 82.8495 63.906 88.5521 64.5921C94.2547 65.2781 99.4338 61.2114 100.12 55.5088Z" fill="#102572"/>
<path d="M91.1964 48.5308V59.7043C91.1954 59.8426 91.1673 59.9793 91.1135 60.1067C91.0597 60.2341 90.9814 60.3496 90.8829 60.4467C90.7845 60.5438 90.6679 60.6206 90.5398 60.6726C90.4117 60.7247 90.2746 60.751 90.1363 60.75C89.9988 60.752 89.8623 60.7262 89.7349 60.6742C89.6076 60.6223 89.492 60.5452 89.395 60.4476C89.2981 60.35 89.2219 60.2339 89.1708 60.1062C89.1197 59.9785 89.0949 59.8418 89.0978 59.7043V50.393L88.3385 50.8299C88.1795 50.9289 87.9958 50.9811 87.8085 50.9803C87.6258 50.9785 87.4469 50.9286 87.2897 50.8355C87.1325 50.7425 87.0026 50.6096 86.9132 50.4503C86.8383 50.3347 86.7878 50.205 86.7646 50.0692C86.7413 49.9334 86.7459 49.7944 86.7781 49.6604C86.8102 49.5264 86.8693 49.4004 86.9516 49.29C87.0339 49.1795 87.1378 49.0869 87.257 49.0178L89.592 47.6355C89.592 47.6355 89.6421 47.6355 89.6636 47.6355C89.6851 47.6355 89.7209 47.5996 89.7567 47.5782C89.7925 47.5567 89.8355 47.5782 89.8713 47.5782C89.8972 47.5715 89.9243 47.5715 89.9501 47.5782C89.9925 47.5678 90.0367 47.5678 90.079 47.5782H90.2868C90.3121 47.5881 90.3402 47.5881 90.3655 47.5782C90.4027 47.5656 90.443 47.5656 90.4801 47.5782C90.4801 47.5782 90.5374 47.5782 90.5518 47.5782C90.5661 47.5782 90.6306 47.6355 90.6664 47.6355C90.6904 47.6554 90.7169 47.6723 90.7451 47.6856L90.8168 47.7429C90.8597 47.7429 90.8741 47.8002 90.8956 47.8217C90.9196 47.844 90.9391 47.8707 90.9529 47.9005L91.0316 47.9721C91.0316 47.9721 91.0316 48.0151 91.0316 48.0294C91.0527 48.0588 91.0651 48.0936 91.0675 48.1297C91.0675 48.1655 91.0675 48.2013 91.1104 48.2228C91.1534 48.2443 91.1104 48.2944 91.1104 48.3159C91.0925 48.3595 91.0925 48.4084 91.1104 48.452L91.1964 48.5308Z" fill="white"/>
<path d="M0.618576 19.3388C0.907453 22.2599 2.00652 25.0423 3.7919 27.3723C5.57729 29.7023 7.978 31.4872 10.7234 32.526C13.4689 33.5647 16.4499 33.816 19.3304 33.2514C22.211 32.6868 24.8766 31.3288 27.0268 29.3305L34.9055 30.4908L30.9518 23.6578C31.8574 21.4337 32.244 19.0325 32.082 16.6366C31.92 14.2407 31.2138 11.9132 30.0171 9.83131C28.8204 7.74937 27.1647 5.96774 25.1759 4.6219C23.1871 3.27606 20.9176 2.40146 18.54 2.06461C16.1624 1.72775 13.7393 1.93752 11.4549 2.67795C9.17055 3.41839 7.0851 4.66999 5.35717 6.33757C3.62925 8.00516 2.30435 10.0448 1.48323 12.3014C0.662114 14.5581 0.366403 16.9722 0.618576 19.3603V19.3388Z" fill="white"/>
<path d="M5.34996 6.29435C7.06996 4.59565 9.15775 3.31547 11.4518 2.55287C13.7457 1.79028 16.1844 1.56572 18.5791 1.89656C20.9987 2.2194 23.312 3.09275 25.3413 4.44949C27.3705 5.80622 29.0616 7.61021 30.2846 9.72276C31.5076 11.8353 32.2299 14.2002 32.3959 16.6355C32.562 19.0709 32.1674 21.5119 31.2425 23.7709V23.5059L35.1747 30.3461L35.4683 30.8546L34.8953 30.7687L27.0166 29.551L27.2028 29.4937C25.0087 31.4836 22.3021 32.8208 19.3885 33.3543C18.6675 33.4884 17.937 33.5651 17.2039 33.5835C16.4732 33.6194 15.7409 33.605 15.0122 33.5406C12.0759 33.2715 9.27055 32.1984 6.90423 30.4392C6.32057 29.9973 5.76556 29.5189 5.24253 29.0067C4.72894 28.49 4.25038 27.9397 3.81003 27.3593C1.44467 24.2706 0.294912 20.4213 0.578751 16.5413C0.86259 12.6613 2.56029 9.02028 5.34996 6.30867V6.29435ZM3.853 27.3092C4.72761 28.4705 5.77611 29.49 6.96153 30.3318C8.12352 31.2009 9.40754 31.8936 10.772 32.3874C12.1288 32.89 13.5484 33.2033 14.9907 33.3185C15.7061 33.3683 16.4241 33.3683 17.1395 33.3185C17.8612 33.2865 18.5794 33.2003 19.2882 33.0607C22.1216 32.4874 24.7401 31.1385 26.8518 29.1643L26.9235 29.0855H27.0381L34.9168 30.1885L34.6303 30.6111L30.6551 23.7924L30.5835 23.6635L30.6408 23.5202C31.5155 21.3362 31.8947 18.9853 31.751 16.637C31.5958 14.2866 30.9102 12.0019 29.7455 9.95439C28.5622 7.91301 26.9492 6.15334 25.0182 4.79738C23.0671 3.45522 20.8354 2.57581 18.4932 2.22604C16.1439 1.86884 13.7443 2.04758 11.4739 2.7489C9.06035 3.50101 6.86538 4.82766 5.07746 6.61492C3.28953 8.40218 1.96209 10.5967 1.20908 13.0099C0.456071 15.4232 0.300006 17.9832 0.754284 20.4701C1.20856 22.957 2.25961 25.2965 3.81718 27.2877L3.853 27.3092Z" fill="#263238"/>
<path d="M18.0925 25.0605C18.0906 25.6424 17.8581 26.1999 17.4459 26.6107C17.0337 27.0215 16.4755 27.2522 15.8936 27.2522C15.3959 27.2553 14.912 27.0888 14.5214 26.7803C14.1309 26.4718 13.857 26.0396 13.7448 25.5547C13.7072 25.3926 13.688 25.2268 13.6875 25.0605C13.6875 24.4773 13.9192 23.918 14.3315 23.5056C14.7439 23.0932 15.3032 22.8616 15.8864 22.8616C16.4696 22.8616 17.0289 23.0932 17.4413 23.5056C17.8536 23.918 18.0853 24.4773 18.0853 25.0605H18.0925Z" fill="#ADADAD"/>
<path d="M8.25 23.96C8.3678 23.5173 8.55129 23.0948 8.79435 22.7065C9.5106 21.539 10.5563 21.0305 10.8428 18.0294C11.1293 15.0283 12.0318 10.1506 15.9927 10.1506C19.9535 10.1506 20.8632 15.0068 21.1425 18.0294C21.4219 21.052 22.4389 21.539 23.191 22.7065C23.4311 23.0964 23.6144 23.5184 23.7354 23.96H8.25Z" fill="#6CCF00"/>
<path d="M21.8184 10.763C21.8184 11.2333 21.679 11.693 21.4177 12.0841C21.1564 12.4751 20.785 12.7799 20.3505 12.9599C19.9159 13.1399 19.4378 13.187 18.9765 13.0952C18.5153 13.0035 18.0916 12.777 17.759 12.4444C17.4264 12.1119 17.1999 11.6882 17.1082 11.2269C17.0164 10.7656 17.0635 10.2875 17.2435 9.85296C17.4235 9.41845 17.7283 9.04706 18.1193 8.78577C18.5104 8.52448 18.9701 8.38501 19.4405 8.38501C20.0711 8.38501 20.676 8.63554 21.1219 9.0815C21.5679 9.52745 21.8184 10.1323 21.8184 10.763Z" fill="#455A64"/>
<path d="M19.7675 9.45145V12.0085C19.7656 12.0718 19.7391 12.1319 19.6936 12.1761C19.6482 12.2202 19.5873 12.2449 19.5239 12.2448C19.4926 12.2458 19.4614 12.2404 19.4323 12.2289C19.4032 12.2173 19.3767 12.2 19.3546 12.1778C19.3324 12.1557 19.3151 12.1292 19.3035 12.1001C19.292 12.071 19.2866 12.0398 19.2876 12.0085V9.85972L19.1157 9.95999C19.0759 9.97173 19.0336 9.97173 18.9939 9.95999C18.9514 9.96096 18.9095 9.95009 18.8728 9.92858C18.8361 9.90708 18.8061 9.8758 18.7862 9.83823C18.7695 9.81211 18.7582 9.78286 18.7531 9.75226C18.748 9.72166 18.7492 9.69034 18.7566 9.6602C18.7639 9.63007 18.7773 9.60174 18.796 9.57694C18.8146 9.55214 18.8381 9.53138 18.865 9.51592L19.4022 9.1936H19.5239L19.7675 9.45145Z" fill="white"/>
</svg>
