<svg width="100" height="101" viewBox="0 0 100 101" fill="none" xmlns="http://www.w3.org/2000/svg">
<path d="M0 30.6641C0 14.0955 13.4315 0.664062 30 0.664062H70C86.5685 0.664062 100 14.0955 100 30.6641V70.6641C100 87.2326 86.5685 100.664 70 100.664H30C13.4315 100.664 0 87.2326 0 70.6641V30.6641Z" fill="#6CCF00"/>
<path d="M33.0238 25.864C33.3406 25.4877 33.734 25.1856 34.1768 24.9784C34.6196 24.7713 35.1013 24.664 35.5887 24.6641H64.4113C64.8987 24.664 65.3804 24.7713 65.8232 24.9784C66.266 25.1856 66.6594 25.4877 66.9762 25.864L75.7816 36.3002C76.5678 37.2322 77 38.419 77 39.6464V40.5206C77.0002 42.2176 76.4784 43.8723 75.5076 45.2533C74.5368 46.6344 73.1656 47.6728 71.5854 48.2234C70.0053 48.7741 68.2952 48.8095 66.6943 48.3247C65.0934 47.8398 63.6816 46.859 62.6562 45.5193C61.9075 46.499 60.9479 47.2917 59.8511 47.8366C58.7542 48.3816 57.5491 48.6643 56.3281 48.6632C55.1071 48.6646 53.9019 48.3819 52.805 47.837C51.7081 47.292 50.7486 46.4992 50 45.5193C49.2514 46.4992 48.2919 47.292 47.195 47.837C46.0981 48.3819 44.8929 48.6646 43.6719 48.6632C42.4508 48.6646 41.2457 48.3819 40.1488 47.837C39.0519 47.292 38.0924 46.4992 37.3438 45.5193C36.3184 46.859 34.9066 47.8398 33.3057 48.3247C31.7048 48.8095 29.9947 48.7741 28.4146 48.2234C26.8344 47.6728 25.4632 46.6344 24.4924 45.2533C23.5216 43.8723 22.9998 42.2176 23 40.5206V39.6464C23 38.419 23.4322 37.2322 24.2184 36.3002L33.0271 25.8606L33.0238 25.864ZM39.0312 40.5206C39.0312 41.7709 39.5202 42.9699 40.3905 43.854C41.2607 44.7381 42.4411 45.2347 43.6719 45.2347C44.9026 45.2347 46.083 44.7381 46.9533 43.854C47.8236 42.9699 48.3125 41.7709 48.3125 40.5206C48.3125 40.066 48.4903 39.63 48.8068 39.3085C49.1232 38.987 49.5524 38.8064 50 38.8064C50.4476 38.8064 50.8768 38.987 51.1932 39.3085C51.5097 39.63 51.6875 40.066 51.6875 40.5206C51.6875 41.7709 52.1764 42.9699 53.0467 43.854C53.917 44.7381 55.0974 45.2347 56.3281 45.2347C57.5589 45.2347 58.7393 44.7381 59.6095 43.854C60.4798 42.9699 60.9688 41.7709 60.9688 40.5206C60.9688 40.066 61.1465 39.63 61.463 39.3085C61.7795 38.987 62.2087 38.8064 62.6562 38.8064C63.1038 38.8064 63.533 38.987 63.8495 39.3085C64.166 39.63 64.3438 40.066 64.3438 40.5206C64.3438 41.7709 64.8327 42.9699 65.703 43.854C66.5732 44.7381 67.7536 45.2347 68.9844 45.2347C70.2151 45.2347 71.3955 44.7381 72.2658 43.854C73.1361 42.9699 73.625 41.7709 73.625 40.5206V39.6464C73.625 39.2378 73.4814 38.8426 73.22 38.5321L64.4113 28.0925H35.5887L26.78 38.5321C26.5186 38.8426 26.375 39.2378 26.375 39.6464V40.5206C26.375 41.7709 26.8639 42.9699 27.7342 43.854C28.6045 44.7381 29.7849 45.2347 31.0156 45.2347C32.2464 45.2347 33.4268 44.7381 34.297 43.854C35.1673 42.9699 35.6562 41.7709 35.6562 40.5206C35.6562 40.066 35.834 39.63 36.1505 39.3085C36.467 38.987 36.8962 38.8064 37.3438 38.8064C37.7913 38.8064 38.2205 38.987 38.537 39.3085C38.8535 39.63 39.0312 40.066 39.0312 40.5206Z" fill="white"/>
<rect x="23" y="73.6641" width="54" height="4" rx="2" fill="white"/>
<path d="M35.4805 64.1445C35.4805 65.082 35.1406 65.832 34.4844 66.4062C33.8164 66.9805 32.8672 67.2617 31.6367 67.2617C31.0625 67.2617 30.5117 67.1914 29.9727 67.0391C29.4336 66.8867 29 66.7227 28.6836 66.5469C28.3672 66.3711 28.0742 66.1602 27.8047 65.9258C27.5234 65.6914 27.3477 65.5156 27.2656 65.4219C27.1836 65.3281 27.125 65.2578 27.1016 65.2109L26 66.4297L26.2227 66.6992C26.3398 66.8633 26.5625 67.0742 26.8906 67.332C27.207 67.5781 27.5703 67.8242 27.9805 68.0586C28.4023 68.293 28.9297 68.5039 29.5742 68.6797C30.2305 68.8555 30.9102 68.9375 31.625 68.9375C33.3945 68.9375 34.7773 68.5039 35.7734 67.6133C36.7812 66.7227 37.2734 65.5742 37.2734 64.1445C37.2734 63.3242 37.1094 62.6328 36.7695 62.0469C36.4414 61.4609 35.9961 61.0156 35.457 60.6875C34.918 60.3711 34.332 60.1016 33.6875 59.8789C33.043 59.6562 32.3984 59.457 31.7422 59.2695C31.0977 59.082 30.5 58.8828 29.9609 58.6484C29.4219 58.4258 28.9883 58.1094 28.6484 57.6992C28.3203 57.3008 28.1445 56.8086 28.1445 56.2227C28.1445 55.4258 28.4727 54.7461 29.1289 54.1836C29.7852 53.6211 30.6523 53.3398 31.7539 53.3398C32.2227 53.3398 32.668 53.4102 33.1016 53.5273C33.5352 53.6445 33.8867 53.7852 34.1445 53.9375C34.4023 54.0898 34.6484 54.2656 34.8828 54.4531C35.1172 54.6406 35.2695 54.7812 35.3281 54.8516C35.3984 54.9219 35.4453 54.9805 35.4688 55.0273L36.6758 53.8203L36.4766 53.5859C36.3594 53.4453 36.1484 53.2695 35.8555 53.0586C35.5742 52.8477 35.2461 52.6484 34.8711 52.4375C34.5078 52.2266 34.0508 52.0508 33.5 51.8984C32.9492 51.7461 32.3633 51.6641 31.7539 51.6641C30.1367 51.6641 28.8359 52.1094 27.8398 53C26.8555 53.8906 26.3516 54.957 26.3516 56.2227C26.3516 57.043 26.5273 57.7344 26.8555 58.3203C27.1953 58.9062 27.6289 59.3633 28.168 59.6797C28.707 60.0078 29.293 60.2773 29.9375 60.5C30.5938 60.7227 31.2383 60.9219 31.8828 61.1094C32.5391 61.2969 33.125 61.4961 33.6641 61.7188C34.2031 61.9531 34.6367 62.2695 34.9648 62.668C35.3047 63.0781 35.4805 63.5703 35.4805 64.1445Z" fill="white"/>
<path d="M56.2578 55.0273V68.7031H58.0508V51.8984H56.4922L49.5312 61.0273L42.5703 51.8984H41.0117V68.7031H42.8164V55.0273L49.5312 63.8984L56.2578 55.0273Z" fill="white"/>
<path d="M64.8945 67.0273V60.7812H72.6875V59.1055H64.8945V53.5859H74.6094V51.8984H63.0898V68.7031H74.8555V67.0273H64.8945Z" fill="white"/>
</svg>
