<svg width="24" height="25" viewBox="0 0 24 25" fill="none" xmlns="http://www.w3.org/2000/svg">
<rect y="0.578125" width="24" height="24" rx="12" fill="#102572"/>
<path d="M11.9993 5.86272C14.1857 5.86272 14.4449 5.86992 15.3089 5.91072C16.1081 5.94672 16.5425 6.08112 16.8305 6.19392C17.2121 6.34272 17.4857 6.52032 17.7713 6.80592C18.0569 7.09152 18.2345 7.36512 18.3833 7.74672C18.4961 8.03472 18.6281 8.46912 18.6665 9.26832C18.7049 10.1323 18.7145 10.3915 18.7145 12.5779C18.7145 14.7643 18.7073 15.0235 18.6665 15.8875C18.6305 16.6867 18.4961 17.1211 18.3833 17.4091C18.2345 17.7907 18.0569 18.0643 17.7713 18.3499C17.4857 18.6355 17.2121 18.8131 16.8305 18.9619C16.5425 19.0747 16.1081 19.2067 15.3089 19.2451C14.4449 19.2835 14.1857 19.2931 11.9993 19.2931C9.81286 19.2931 9.55366 19.2859 8.68966 19.2451C7.89046 19.2091 7.45606 19.0747 7.16806 18.9619C6.78646 18.8131 6.51286 18.6355 6.22726 18.3499C5.94166 18.0643 5.76406 17.7907 5.61526 17.4091C5.50246 17.1211 5.37046 16.6867 5.33206 15.8875C5.29366 15.0235 5.28406 14.7643 5.28406 12.5779C5.28406 10.3915 5.29126 10.1323 5.33206 9.26832C5.36806 8.46912 5.50246 8.03472 5.61526 7.74672C5.76406 7.36512 5.94166 7.09152 6.22726 6.80592C6.51286 6.52032 6.78646 6.34272 7.16806 6.19392C7.45606 6.08112 7.89046 5.94912 8.68966 5.91072C9.55366 5.86992 9.81286 5.86272 11.9993 5.86272ZM11.9993 4.38672C9.77446 4.38672 9.49606 4.39632 8.62246 4.43712C7.75126 4.47792 7.15606 4.61472 6.63286 4.81872C6.09526 5.02512 5.63686 5.30592 5.18326 5.76192C4.72726 6.21792 4.44886 6.67392 4.23766 7.21392C4.03606 7.73472 3.89686 8.32992 3.85606 9.20352C3.81526 10.0771 3.80566 10.3555 3.80566 12.5803C3.80566 14.8051 3.81526 15.0835 3.85606 15.9571C3.89686 16.8283 4.03366 17.4235 4.23766 17.9467C4.44646 18.4819 4.72726 18.9403 5.18326 19.3939C5.63926 19.8499 6.09526 20.1283 6.63526 20.3395C7.15606 20.5411 7.75126 20.6803 8.62486 20.7211C9.49846 20.7619 9.77686 20.7715 12.0017 20.7715C14.2265 20.7715 14.5049 20.7619 15.3785 20.7211C16.2497 20.6803 16.8449 20.5435 17.3681 20.3395C17.9033 20.1307 18.3617 19.8499 18.8153 19.3939C19.2713 18.9379 19.5497 18.4819 19.7609 17.9419C19.9625 17.4211 20.1017 16.8259 20.1425 15.9523C20.1833 15.0787 20.1929 14.8003 20.1929 12.5755C20.1929 10.3507 20.1833 10.0723 20.1425 9.19872C20.1017 8.32752 19.9649 7.73232 19.7609 7.20912C19.5521 6.67392 19.2713 6.21552 18.8153 5.76192C18.3593 5.30592 17.9033 5.02752 17.3633 4.81632C16.8425 4.61472 16.2473 4.47552 15.3737 4.43472C14.5025 4.39632 14.2241 4.38672 11.9993 4.38672Z" fill="white"/>
<path d="M12.0002 8.37109C9.67697 8.37109 7.79297 10.2551 7.79297 12.5783C7.79297 14.9015 9.67697 16.7855 12.0002 16.7855C14.3234 16.7855 16.2074 14.9015 16.2074 12.5783C16.2074 10.2551 14.3234 8.37109 12.0002 8.37109ZM12.0002 15.3095C10.493 15.3095 9.26897 14.0879 9.26897 12.5783C9.26897 11.0687 10.493 9.84709 12.0002 9.84709C13.5074 9.84709 14.7314 11.0687 14.7314 12.5783C14.7314 14.0879 13.5074 15.3095 12.0002 15.3095Z" fill="white"/>
<path d="M16.3727 9.19066C16.9161 9.19066 17.3567 8.7501 17.3567 8.20666C17.3567 7.66321 16.9161 7.22266 16.3727 7.22266C15.8292 7.22266 15.3887 7.66321 15.3887 8.20666C15.3887 8.7501 15.8292 9.19066 16.3727 9.19066Z" fill="white"/>
</svg>
