<svg width="11" height="16" viewBox="0 0 11 16" fill="none" xmlns="http://www.w3.org/2000/svg">
<path d="M5.35714 0.987305V4.7373C5.35714 5.16355 5.52647 5.57233 5.82786 5.87373C6.12926 6.17512 6.53804 6.34445 6.96429 6.34445H10.7143V14.3802C10.7143 14.8064 10.545 15.2152 10.2436 15.5166C9.94217 15.818 9.53338 15.9873 9.10714 15.9873H1.60714C1.1809 15.9873 0.772119 15.818 0.470721 15.5166C0.169324 15.2152 0 14.8064 0 14.3802V2.59445C0 2.16821 0.169324 1.75942 0.470721 1.45803C0.772119 1.15663 1.1809 0.987305 1.60714 0.987305H5.35714ZM6.42857 1.25516V4.7373C6.42857 4.87938 6.48501 5.01565 6.58548 5.11611C6.68594 5.21658 6.82221 5.27302 6.96429 5.27302H10.4464L6.42857 1.25516Z" fill="#005B82"/>
</svg>
