<svg width="16" height="16" viewBox="0 0 16 16" fill="none" xmlns="http://www.w3.org/2000/svg">
<path d="M13.2858 0.5C13.9071 0.5 14.5029 0.803914 14.9422 1.34488C15.3815 1.88585 15.6282 2.61957 15.6282 3.38462V12.6154C15.6282 13.3804 15.3815 14.1141 14.9422 14.6551C14.5029 15.1961 13.9071 15.5 13.2858 15.5H2.97915C2.35789 15.5 1.76209 15.1961 1.3228 14.6551C0.883509 14.1141 0.636719 13.3804 0.636719 12.6154V3.38462C0.636719 2.61957 0.883509 1.88585 1.3228 1.34488C1.76209 0.803914 2.35789 0.5 2.97915 0.5H13.2858ZM14.6913 5.07038L8.37047 9.65115C8.31072 9.69436 8.24392 9.7207 8.1749 9.72829C8.10588 9.73587 8.03635 9.7245 7.97132 9.695L7.89449 9.65115L1.57369 5.07269V12.6154C1.57369 13.0744 1.72176 13.5146 1.98534 13.8392C2.24891 14.1638 2.60639 14.3462 2.97915 14.3462H13.2858C13.6586 14.3462 14.0161 14.1638 14.2796 13.8392C14.5432 13.5146 14.6913 13.0744 14.6913 12.6154V5.07038ZM13.2858 1.65385H2.97915C2.60639 1.65385 2.24891 1.83619 1.98534 2.16078C1.72176 2.48536 1.57369 2.92559 1.57369 3.38462V3.73308L8.13248 8.48462L14.6913 3.73077V3.38462C14.6913 2.92559 14.5432 2.48536 14.2796 2.16078C14.0161 1.83619 13.6586 1.65385 13.2858 1.65385Z" fill="#6CCF00"/>
</svg>
