<svg width="13" height="16" viewBox="0 0 13 16" fill="none" xmlns="http://www.w3.org/2000/svg">
<path d="M10.7143 5.9873H12.1429C12.3323 5.9873 12.514 6.06256 12.6479 6.19651C12.7819 6.33047 12.8571 6.51215 12.8571 6.70159V15.273C12.8571 15.4625 12.7819 15.6441 12.6479 15.7781C12.514 15.9121 12.3323 15.9873 12.1429 15.9873H0.714286C0.524845 15.9873 0.343164 15.9121 0.209209 15.7781C0.0752549 15.6441 0 15.4625 0 15.273V6.70159C0 6.51215 0.0752549 6.33047 0.209209 6.19651C0.343164 6.06256 0.524845 5.9873 0.714286 5.9873H2.14286V5.27302C2.14286 4.13638 2.59439 3.04629 3.39811 2.24256C4.20184 1.43883 5.29193 0.987305 6.42857 0.987305C7.56521 0.987305 8.6553 1.43883 9.45903 2.24256C10.2628 3.04629 10.7143 4.13638 10.7143 5.27302V5.9873ZM9.28571 5.9873V5.27302C9.28571 4.51526 8.98469 3.78853 8.44888 3.25271C7.91306 2.7169 7.18633 2.41588 6.42857 2.41588C5.67081 2.41588 4.94408 2.7169 4.40827 3.25271C3.87245 3.78853 3.57143 4.51526 3.57143 5.27302V5.9873H9.28571ZM5.71429 10.273V11.7016H7.14286V10.273H5.71429ZM2.85714 10.273V11.7016H4.28571V10.273H2.85714ZM8.57143 10.273V11.7016H10V10.273H8.57143Z" fill="#005B82"/>
</svg>
