<svg width="15" height="16" viewBox="0 0 15 16" fill="none" xmlns="http://www.w3.org/2000/svg">
<path d="M11.2192 14.0068H1.49589V4.25684C1.49589 3.84434 1.15932 3.50684 0.747945 3.50684C0.336575 3.50684 0 3.84434 0 4.25684V14.0068C0 14.8318 0.673151 15.5068 1.49589 15.5068H11.2192C11.6305 15.5068 11.9671 15.1693 11.9671 14.7568C11.9671 14.3443 11.6305 14.0068 11.2192 14.0068ZM13.463 0.506836H4.48767C3.66493 0.506836 2.99178 1.18184 2.99178 2.00684V11.0068C2.99178 11.8318 3.66493 12.5068 4.48767 12.5068H13.463C14.2858 12.5068 14.9589 11.8318 14.9589 11.0068V2.00684C14.9589 1.18184 14.2858 0.506836 13.463 0.506836ZM8.97534 2.75684C10.2169 2.75684 11.2192 3.76184 11.2192 5.00684C11.2192 6.25184 10.2169 7.25684 8.97534 7.25684C7.73375 7.25684 6.73151 6.25184 6.73151 5.00684C6.73151 3.76184 7.73375 2.75684 8.97534 2.75684ZM4.30816 11.0068C5.40764 9.63434 7.08304 8.75684 8.97534 8.75684C10.8676 8.75684 12.543 9.63434 13.6425 11.0068H4.30816Z" fill="#005B82"/>
</svg>
