<svg width="33" height="32" viewBox="0 0 33 32" fill="none" xmlns="http://www.w3.org/2000/svg">
<path d="M12.9061 24.3511C11.3052 24.3511 9.70428 24.3584 8.10348 24.3481C7.91672 24.3513 7.73114 24.3177 7.55735 24.249C7.38356 24.1804 7.22495 24.0781 7.09058 23.9479C6.95622 23.8178 6.84872 23.6624 6.77423 23.4906C6.69975 23.3188 6.65973 23.134 6.65647 22.9467C6.6532 22.7594 6.68676 22.5733 6.75521 22.399C6.82367 22.2247 6.92568 22.0657 7.05543 21.9309C7.18519 21.7961 7.34013 21.6883 7.51143 21.6136C7.68273 21.5389 7.86702 21.4988 8.05378 21.4955C9.96915 21.3989 11.8843 21.2998 13.7993 21.1982C13.9974 21.188 14.1963 21.177 14.3932 21.1574C14.8219 21.1149 14.897 20.9534 14.6682 20.591C13.7379 19.1163 12.808 17.6413 11.8787 16.166C11.6533 15.8099 11.3556 15.4893 11.1866 15.1097C10.4182 13.3837 10.8746 11.6698 12.3887 10.5208C14.0829 9.23486 15.7877 7.96307 17.4846 6.68029C17.9991 6.2914 17.9959 6.2562 17.53 5.83626C17.1563 5.49976 16.7781 5.16835 16.407 4.82914C16.3061 4.73547 16.1847 4.6669 16.0525 4.62898C15.9203 4.59105 15.7811 4.58483 15.646 4.61081C14.4264 4.7621 13.2032 4.88504 11.9812 5.01897C11.3245 5.09096 10.6691 5.20132 10.0106 5.22712C9.81186 5.23476 9.61377 5.19988 9.42951 5.12479C9.24526 5.04971 9.07906 4.93613 8.94196 4.79162C8.80487 4.64712 8.70004 4.47499 8.63443 4.2867C8.56882 4.0984 8.54394 3.89825 8.56145 3.69957C8.59426 3.37463 8.73402 3.06989 8.95866 2.83344C9.18331 2.59698 9.48006 2.44227 9.8021 2.3937C11.8269 2.08698 13.8528 1.78854 15.8757 1.47004C16.6658 1.34598 17.3332 1.48373 17.9535 2.05322C19.58 3.54684 21.2507 4.99142 22.8994 6.46116C23.4832 6.98112 23.7507 7.68947 24.0121 8.39926C24.5044 9.73794 24.9878 11.0808 25.5127 12.4067C25.5731 12.5007 25.6542 12.5796 25.7497 12.6374C25.8452 12.6951 25.9526 12.7302 26.0637 12.7398C27.6888 12.8125 29.3157 12.8462 30.9417 12.898C31.1284 12.899 31.313 12.9369 31.485 13.0095C31.657 13.0821 31.8131 13.188 31.9444 13.3211C32.0756 13.4542 32.1794 13.6119 32.2499 13.7852C32.3203 13.9585 32.3561 14.1441 32.355 14.3313C32.354 14.5184 32.3162 14.7036 32.2438 14.8761C32.1714 15.0486 32.0658 15.2052 31.9331 15.3368C31.8004 15.4684 31.6432 15.5725 31.4703 15.6431C31.2975 15.7138 31.1125 15.7496 30.9259 15.7486C29.7349 15.762 28.544 15.754 27.353 15.7546C26.5195 15.7546 25.6836 15.7144 24.8531 15.7648C23.8389 15.8266 23.2421 15.3431 22.8726 14.4547C22.6549 13.9309 22.3875 13.4273 22.1787 12.9002C22.0478 12.5701 21.89 12.5753 21.6477 12.7593C20.9331 13.3022 20.2141 13.8404 19.4984 14.3825C18.8146 14.9006 18.1377 15.428 17.4468 15.9362C17.365 15.9782 17.3029 16.0508 17.274 16.1383C17.2451 16.2258 17.2516 16.3212 17.2921 16.4039C17.6765 17.4446 18.0543 18.4874 18.434 19.5299C18.7675 20.4486 19.136 21.3568 19.4253 22.2894C19.7226 23.2478 18.882 24.3199 17.8261 24.3415C16.4243 24.3702 15.0215 24.3522 13.6192 24.3543C13.381 24.3543 13.1428 24.3543 12.9046 24.3543L12.9061 24.3511Z" fill="#6CCF00"/>
<path d="M28.0977 0C28.9773 0.0115189 29.8171 0.369067 30.4363 0.995617C31.0555 1.62217 31.4045 2.46757 31.4081 3.34971C31.4084 3.78911 31.3221 4.22423 31.1542 4.63008C30.9863 5.03592 30.7401 5.40449 30.4297 5.7146C30.1193 6.02471 29.7509 6.27024 29.3456 6.43709C28.9403 6.60394 28.5061 6.68881 28.068 6.68682C27.6298 6.68484 27.1964 6.59604 26.7926 6.42554C26.3888 6.25503 26.0226 6.00617 25.715 5.69326C25.4074 5.38036 25.1645 5.00958 25.0003 4.60222C24.836 4.19487 24.7537 3.75899 24.758 3.31961C24.7697 2.43771 25.1263 1.59568 25.7509 0.974814C26.3755 0.353946 27.2183 0.0038875 28.0977 0Z" fill="#6CCF00"/>
<path d="M17.2437 26.358C16.7635 26.9399 16.3386 27.4568 15.911 27.9721C14.9663 29.1094 14.0286 30.2526 13.0716 31.3801C12.4189 32.1487 11.5011 32.2028 10.8667 31.541C10.3671 31.0198 10.3317 30.2874 10.7956 29.6591C11.5629 28.6198 12.3343 27.5833 13.1222 26.5597C13.2405 26.4083 13.4134 26.3095 13.6037 26.2849C14.6994 26.2607 15.795 26.271 16.8915 26.2753C17.0112 26.2922 17.129 26.3199 17.2437 26.358Z" fill="#6CCF00"/>
<path d="M8.663 9.12309C8.2144 9.7601 7.75295 10.0705 6.99709 10.0418C5.26623 9.97604 3.53251 10.0213 1.79991 10.0203C1.65461 10.0203 1.47534 10.0641 1.37117 9.99611C1.20332 9.88591 0.976562 9.69974 0.976562 9.54558C0.976562 9.39143 1.20618 9.21115 1.3718 9.09554C1.46248 9.03184 1.62857 9.07197 1.76069 9.07197C3.87678 9.07101 5.99298 9.07144 8.10928 9.07324C8.27443 9.07292 8.43957 9.10223 8.663 9.12309Z" fill="#6CCF00"/>
<path d="M3.43218 13.8425C2.50673 13.8425 1.58128 13.8451 0.655823 13.8409C0.244863 13.839 0.000795912 13.6562 1.94124e-06 13.3688C-0.00079203 13.0813 0.242006 12.8964 0.654553 12.8956C2.51864 12.8921 4.38288 12.9039 6.24665 12.8858C6.65443 12.8818 6.64602 13.0993 6.65046 13.3874C6.65491 13.6803 6.61632 13.8589 6.24792 13.8502C5.30976 13.8277 4.37081 13.8427 3.43218 13.8425Z" fill="#6CCF00"/>
<path d="M7.49041 17.6157C7.33024 17.6398 7.16896 17.6557 7.00719 17.6635C5.23801 17.667 3.46889 17.6675 1.69981 17.6651C1.60756 17.6651 1.48671 17.697 1.42812 17.6504C1.25837 17.517 0.995876 17.3542 0.992224 17.1979C0.98873 17.044 1.24011 16.8583 1.41446 16.737C1.50529 16.6733 1.67107 16.7166 1.80303 16.7166C3.2957 16.7158 4.78836 16.7484 6.27817 16.7007C6.94241 16.68 7.38655 16.8257 7.49041 17.6157Z" fill="#6CCF00"/>
</svg>
