<svg width="35" height="20" viewBox="0 0 35 20" fill="none" xmlns="http://www.w3.org/2000/svg">
<path d="M34.0315 1.03283C33.8625 0.625782 33.539 0.302312 33.132 0.133269C32.9317 0.0479084 32.7166 0.00263204 32.4989 0H24.1696C23.7278 0 23.3041 0.17551 22.9917 0.48792C22.6793 0.80033 22.5038 1.22405 22.5038 1.66586C22.5038 2.10768 22.6793 2.53139 22.9917 2.8438C23.3041 3.15621 23.7278 3.33172 24.1696 3.33172H28.4842L19.172 12.6439L13.6913 7.14655C13.5365 6.99041 13.3522 6.86648 13.1492 6.7819C12.9462 6.69733 12.7285 6.65379 12.5086 6.65379C12.2887 6.65379 12.0709 6.69733 11.8679 6.7819C11.6649 6.86648 11.4807 6.99041 11.3258 7.14655L1.33065 17.1417C1.17451 17.2966 1.05058 17.4808 0.966007 17.6838C0.881433 17.8868 0.837891 18.1046 0.837891 18.3245C0.837891 18.5444 0.881433 18.7621 0.966007 18.9651C1.05058 19.1681 1.17451 19.3524 1.33065 19.5072C1.48551 19.6634 1.66976 19.7873 1.87276 19.8719C2.07576 19.9565 2.2935 20 2.51341 20C2.73333 20 2.95106 19.9565 3.15406 19.8719C3.35706 19.7873 3.54131 19.6634 3.69617 19.5072L12.5086 10.6782L17.9893 16.1755C18.1441 16.3317 18.3284 16.4556 18.5314 16.5402C18.7344 16.6247 18.9521 16.6683 19.172 16.6683C19.3919 16.6683 19.6097 16.6247 19.8127 16.5402C20.0157 16.4556 20.1999 16.3317 20.3548 16.1755L30.8331 5.68059V9.99517C30.8331 10.437 31.0086 10.8607 31.321 11.1731C31.6334 11.4855 32.0571 11.661 32.4989 11.661C32.9407 11.661 33.3645 11.4855 33.6769 11.1731C33.9893 10.8607 34.1648 10.437 34.1648 9.99517V1.66586C34.1622 1.44817 34.1169 1.23311 34.0315 1.03283Z" fill="#6CCF00"/>
</svg>
