<svg width="24" height="24" viewBox="0 0 24 24" fill="none" xmlns="http://www.w3.org/2000/svg">
<path d="M21.7755 10.2558L21.7752 10.2561L20.3779 11.4788V12.5145L21.7528 13.7731C21.7531 13.7734 21.7535 13.7737 21.7538 13.774C22.0367 14.0224 22.2246 14.3614 22.2853 14.733C22.346 15.1049 22.2756 15.4863 22.0862 15.8119C22.0861 15.8121 22.086 15.8123 22.0859 15.8125L20.3765 18.8115L20.3761 18.8121C20.2336 19.0589 20.0288 19.2638 19.7821 19.4064C19.5355 19.549 19.2557 19.6242 18.9709 19.6246M21.7755 10.2558L8.64027 21.2864L8.76288 21.2621L8.64036 21.2869L8.64034 21.2868C8.71469 21.6607 8.91816 21.9966 9.21515 22.2357C9.51192 22.4746 9.88317 22.6016 10.2641 22.5946H13.8017C14.1826 22.6016 14.5538 22.4746 14.8506 22.2357C15.1476 21.9966 15.3511 21.6607 15.4254 21.2868C15.4254 21.2867 15.4255 21.2865 15.4255 21.2864L15.7957 19.4573C16.1045 19.3052 16.4041 19.135 16.6929 18.9475L18.4503 19.543L18.4513 19.5433C18.619 19.5984 18.7945 19.6259 18.9709 19.6246M21.7755 10.2558C22.0631 10.0024 22.2518 9.65543 22.3083 9.2763C22.3647 8.89756 22.2856 8.51106 22.0849 8.18499C22.0847 8.18465 22.0845 8.18431 22.0843 8.18397L20.3161 5.18707C20.316 5.18691 20.3159 5.18675 20.3158 5.18658C20.1734 4.94001 19.9686 4.73521 19.7221 4.5927C19.4755 4.45016 19.1957 4.37494 18.9109 4.37457M21.7755 10.2558L18.3904 4.45613M18.9709 19.6246C18.9708 19.6246 18.9706 19.6246 18.9705 19.6246L18.9704 19.4996L18.9713 19.6246C18.9712 19.6246 18.9711 19.6246 18.9709 19.6246ZM18.3904 4.45613L18.3913 4.45582C18.559 4.40071 18.7345 4.37327 18.9109 4.37457M18.3904 4.45613L16.6257 5.05162C16.3394 4.86428 16.0422 4.69411 15.7357 4.54203L15.3655 2.71272C15.3655 2.71264 15.3654 2.71255 15.3654 2.71247C15.2911 2.3385 15.0876 2.00257 14.7906 1.76348C14.4938 1.52458 14.1226 1.39756 13.7417 1.40457H10.234C9.85317 1.39756 9.48191 1.52458 9.18515 1.76348C8.88814 2.00257 8.68466 2.3385 8.61032 2.71247C8.6103 2.71255 8.61029 2.71264 8.61027 2.71272L8.2401 4.54181C7.9317 4.69369 7.63254 4.86366 7.34417 5.05081L5.61785 4.42701L5.61803 4.42651M18.3904 4.45613L5.61803 4.42651M18.9109 4.37457C18.9111 4.37457 18.9112 4.37458 18.9113 4.37458L18.9104 4.49957L18.9105 4.37457C18.9106 4.37457 18.9108 4.37457 18.9109 4.37457ZM5.61803 4.42651L5.60689 4.42361M5.61803 4.42651L5.60689 4.42361M5.60689 4.42361C5.43867 4.37978 5.26451 4.36323 5.09107 4.37458C4.80754 4.3756 4.5292 4.45079 4.28369 4.5927C4.03715 4.73521 3.83239 4.94 3.68992 5.18656C3.68982 5.18673 3.68972 5.1869 3.68962 5.18707L1.92021 8.18605L1.91984 8.18669M5.60689 4.42361L1.91984 8.18669M1.91984 8.18669C1.7302 8.51249 1.65972 8.8941 1.7205 9.26615C1.7812 9.63775 1.96906 9.97673 2.25195 10.2252L3.62787 11.4846V12.5209L2.25314 13.7429C1.96212 13.9931 1.76904 14.3383 1.70811 14.7172C1.64716 15.0963 1.72241 15.4847 1.92051 15.8136C1.92062 15.8138 1.92072 15.8139 1.92082 15.8141L3.68962 18.8121C3.68972 18.8122 3.68981 18.8124 3.68991 18.8126C3.83238 19.0591 4.03714 19.2639 4.28369 19.4064C4.53029 19.549 4.81003 19.6242 5.09487 19.6246M1.91984 8.18669L5.61534 19.543M5.61534 19.543L5.61442 19.5433C5.44679 19.5984 5.27131 19.6259 5.09487 19.6246M5.61534 19.543L7.38002 18.9475L5.61534 19.543ZM5.09487 19.6246C5.09471 19.6246 5.09457 19.6246 5.09442 19.6246L5.09538 19.4996L5.09525 19.6246C5.09512 19.6246 5.09499 19.6246 5.09487 19.6246ZM8.27005 19.4571C8.28854 19.4663 8.30706 19.4754 8.32562 19.4844L8.38037 19.3721L8.25786 19.3969L8.27005 19.4571ZM16.3779 17.0112L16.311 16.9885L16.2571 17.0342C15.6662 17.5347 14.9909 17.9259 14.2628 18.1895L14.1964 18.2136L14.1827 18.2828L13.6702 20.8746H10.3354L9.82295 18.3126L9.80933 18.2445L9.7443 18.22C9.02122 17.9486 8.34889 17.5577 7.75536 17.0635L7.70231 17.0193L7.63668 17.0407L5.15206 17.8497L3.4855 15.025L5.44808 13.2933L5.50079 13.2468L5.48843 13.1776C5.35235 12.4158 5.35235 11.6359 5.48843 10.8741L5.50058 10.806L5.44941 10.7595L3.48474 8.97545L5.15146 6.1505L7.62783 6.98798L7.69476 7.01062L7.74867 6.96496C8.33954 6.46447 9.01484 6.07324 9.74293 5.80961L9.80931 5.78557L9.823 5.71632L10.3356 3.12457H13.6704L14.1828 5.68659L14.1964 5.75469L14.2614 5.7791C14.9845 6.0505 15.6569 6.44145 16.2504 6.93563L16.3034 6.9798L16.3691 6.95843L18.8537 6.14949L20.5202 8.97416L18.5577 10.7058L18.505 10.7524L18.5173 10.8216C18.6534 11.5834 18.6534 12.3633 18.5173 13.1251L18.5052 13.1931L18.5563 13.2396L20.521 15.0237L18.8543 17.8486L16.3779 17.0112Z" fill="black" stroke="black" strokeWidth ="0.25"/>
<path d="M11.9994 16.625C11.0849 16.6249 10.1909 16.3536 9.43049 15.8455C8.66991 15.3373 8.07711 14.615 7.72706 13.7699C7.377 12.9248 7.28541 11.9949 7.46387 11.0977C7.64233 10.2005 8.08282 9.37645 8.72963 8.72963C9.37645 8.08282 10.2005 7.64233 11.0977 7.46387C11.9949 7.28541 12.9248 7.377 13.7699 7.72706C14.615 8.07711 15.3373 8.66991 15.8455 9.43049C16.3536 10.1909 16.6249 11.0848 16.625 11.9994C16.6311 12.6084 16.5157 13.2125 16.2854 13.7764C16.0551 14.3405 15.7146 14.853 15.2838 15.2838C14.853 15.7146 14.3405 16.0551 13.7764 16.2854C13.2125 16.5157 12.6084 16.6311 11.9994 16.625ZM11.9994 16.625C11.9992 16.625 11.999 16.625 11.9987 16.625L12 16.5L11.9994 16.625ZM11.9971 9.12497L11.9971 9.1251L12.0029 9.12497C12.3825 9.11613 12.7599 9.18437 13.1124 9.32558C13.4649 9.46679 13.785 9.67802 14.0535 9.9465C14.322 10.215 14.5332 10.5351 14.6744 10.8876C14.8156 11.2401 14.8839 11.6175 14.875 11.9971L14.8749 11.9971L14.875 12.0029C14.8839 12.3825 14.8156 12.7599 14.6744 13.1124C14.5332 13.4649 14.322 13.785 14.0535 14.0535C13.785 14.322 13.4649 14.5332 13.1124 14.6744C12.7599 14.8156 12.3825 14.8839 12.0029 14.875L12.0029 14.8749L11.9971 14.875C11.6175 14.8839 11.2401 14.8156 10.8876 14.6744C10.5351 14.5332 10.215 14.322 9.9465 14.0535C9.67802 13.785 9.46679 13.4649 9.32558 13.1124C9.18437 12.7599 9.11613 12.3825 9.12497 12.0029L9.1251 12.0029L9.12497 11.9971C9.11613 11.6175 9.18437 11.2401 9.32558 10.8876C9.46679 10.5351 9.67802 10.215 9.9465 9.9465C10.215 9.67802 10.5351 9.46679 10.8876 9.32558C11.2401 9.18437 11.6175 9.11613 11.9971 9.12497Z" fill="black" stroke="black" strokeWidth ="0.25"/>
</svg>
