<svg width="15" height="16" viewBox="0 0 15 16" fill="none" xmlns="http://www.w3.org/2000/svg">
<path d="M14.9206 1.96945V13.7552C14.9206 14.6428 14.2049 15.3623 13.322 15.3623H1.59864C0.715724 15.3623 0 14.6428 0 13.7552V1.96945C0 1.08184 0.715724 0.362305 1.59864 0.362305H13.322C14.2049 0.362305 14.9206 1.08184 14.9206 1.96945ZM10.1247 9.20159C9.63973 9.20159 9.19807 9.38778 8.86635 9.69281L6.60301 8.32757C6.68031 8.02225 6.68031 7.70233 6.60301 7.397L8.86635 6.03177C9.19807 6.33682 9.63973 6.52302 10.1247 6.52302C11.1548 6.52302 11.9898 5.68355 11.9898 4.64802C11.9898 3.61248 11.1548 2.77302 10.1247 2.77302C9.09466 2.77302 8.25964 3.61248 8.25964 4.64802C8.25964 4.80863 8.27979 4.96453 8.31759 5.11332L6.05425 6.47855C5.72256 6.1735 5.28091 5.9873 4.79592 5.9873C3.76586 5.9873 2.93084 6.82677 2.93084 7.8623C2.93084 8.89784 3.76586 9.7373 4.79592 9.7373C5.28091 9.7373 5.72256 9.55111 6.05428 9.24609L8.31762 10.6113C8.27904 10.7634 8.25957 10.9197 8.25967 11.0766C8.25967 12.1122 9.09469 12.9516 10.1248 12.9516C11.1548 12.9516 11.9898 12.1122 11.9898 11.0766C11.9898 10.0411 11.1548 9.20159 10.1247 9.20159Z" fill="#005B82"/>
</svg>
