<svg width="36" height="36" viewBox="0 0 36 36" fill="none" xmlns="http://www.w3.org/2000/svg">
<path d="M34.3262 1.4495C34.3127 1.38399 34.2809 1.32373 34.2345 1.2758C34.1881 1.22786 34.1291 1.19425 34.0644 1.17892C29.7505 0.117371 19.7851 3.89984 14.3804 9.3337C13.4172 10.2949 12.5389 11.3386 11.7554 12.4529C10.0895 12.3013 8.42361 12.429 7.00521 13.0515C2.99988 14.8234 1.83454 19.4512 1.50929 21.4378C1.49166 21.5466 1.49919 21.6581 1.53128 21.7636C1.56338 21.869 1.61917 21.9656 1.69435 22.0459C1.76952 22.1262 1.86206 22.1879 1.96479 22.2264C2.06751 22.2649 2.17766 22.2791 2.28671 22.2679L8.71793 21.5575C8.72237 22.0455 8.7515 22.5331 8.80519 23.0181C8.83875 23.3534 8.98743 23.6664 9.22563 23.9033L11.7158 26.4087C11.9514 26.6485 12.2628 26.7981 12.5963 26.8317C13.0755 26.8855 13.5572 26.9148 14.0393 26.9195L13.3341 33.3846C13.3231 33.4942 13.3373 33.6048 13.3755 33.708C13.4138 33.8112 13.4751 33.9041 13.5548 33.9797C13.6345 34.0552 13.7303 34.1113 13.835 34.1436C13.9396 34.1759 14.0503 34.1836 14.1583 34.166C16.1336 33.8467 20.7426 32.6742 22.4934 28.6451C23.1122 27.2164 23.2391 25.5491 23.0963 23.8809C24.2072 23.0934 25.2474 22.2097 26.2052 21.2398C31.6298 15.8124 35.3654 6.00618 34.3262 1.4495ZM21.3836 14.2089C20.9098 13.7323 20.5871 13.125 20.4564 12.4638C20.3256 11.8027 20.3926 11.1174 20.649 10.4946C20.9053 9.87181 21.3395 9.33948 21.8966 8.96496C22.4536 8.59043 23.1086 8.39053 23.7786 8.39053C24.4486 8.39053 25.1035 8.59043 25.6606 8.96496C26.2176 9.33948 26.6518 9.87181 26.9081 10.4946C27.1645 11.1174 27.2315 11.8027 27.1008 12.4638C26.97 13.125 26.6473 13.7323 26.1735 14.2089C25.8592 14.5257 25.4859 14.7771 25.075 14.9486C24.664 15.1202 24.2235 15.2085 23.7786 15.2085C23.3336 15.2085 22.8931 15.1202 22.4821 14.9486C22.0712 14.7771 21.6979 14.5257 21.3836 14.2089Z" stroke="#6CCF00" strokeWidth="2" strokeLinecap="round" strokeLinejoin="round"/>
<path d="M6.38816 25.25C5.59734 25.3477 4.86162 25.7084 4.29784 26.2748C2.90006 27.686 2.76758 32.9123 2.76758 32.9123C2.76758 32.9123 7.96522 32.779 9.3638 31.3711C9.92908 30.8047 10.2882 30.0633 10.3832 29.2663" stroke="#6CCF00" strokeWidth="2" strokeLinecap="round" strokeLinejoin="round"/>
</svg>
