<svg width="25" height="25" viewBox="0 0 25 25" fill="none" xmlns="http://www.w3.org/2000/svg">
<path d="M0.925 23.5268L0.969212 23.5069C1.00499 23.4908 1.03723 23.4728 1.07233 23.4531C1.09524 23.4403 1.11936 23.4267 1.14648 23.4126C1.20886 23.3802 1.28156 23.3484 1.36025 23.3445L1.36028 23.3445C1.56498 23.3344 1.76982 23.3349 1.9726 23.3357L1.99516 23.3358C2.18972 23.3367 2.38231 23.3375 2.5743 23.3296C2.61302 23.3242 2.65016 23.3105 2.68321 23.2894C2.71625 23.2684 2.74443 23.2405 2.76586 23.2076C3.02848 22.701 3.36972 22.3231 3.79011 22.0731C4.21104 21.8228 4.70658 21.7037 5.27281 21.7077C5.30206 21.7071 5.33087 21.7004 5.35738 21.6879L5.3893 21.7558L5.35738 21.6879C5.38273 21.676 5.40544 21.6591 5.42417 21.6382C5.91132 20.8833 6.50053 20.3551 7.19198 20.0552C7.88386 19.755 8.67203 19.686 9.55228 19.8395C9.56273 19.8402 9.5732 19.8406 9.58367 19.8406C9.58449 19.8395 9.58528 19.8383 9.5861 19.8371C9.58625 19.8369 9.58639 19.8367 9.58653 19.8365C9.58656 19.6323 9.58764 19.4284 9.58872 19.2247C9.59164 18.671 9.59456 18.1189 9.57648 17.5669C9.56527 17.2492 9.48349 16.9381 9.33711 16.6563C9.19071 16.3743 8.9834 16.1287 8.73031 15.9374L8.72808 15.9357L8.72811 15.9357C7.59761 15.0131 6.78915 13.8611 6.4218 12.4379C5.77328 9.92568 6.33266 7.69971 8.10583 5.79652L8.10607 5.79625C8.11264 5.78927 8.11977 5.78051 8.1288 5.76908C8.12994 5.76764 8.13111 5.76615 8.13232 5.76462C8.13998 5.75489 8.149 5.74344 8.15821 5.73284C8.17649 5.71176 8.21126 5.67418 8.26156 5.66585L8.26166 5.66583C8.2782 5.66311 8.29744 5.65947 8.31811 5.65556C8.36102 5.64745 8.41006 5.63817 8.45377 5.63359C8.51853 5.6268 8.5994 5.62607 8.66412 5.6665L8.66423 5.66657C8.75627 5.7243 8.79887 5.80949 8.7947 5.9027L0.925 23.5268ZM0.925 23.5268V23.5753M0.925 23.5268V23.5753M15.7134 17.2076C15.6953 17.2981 15.6804 17.3904 15.6665 17.4764C15.6641 17.4908 15.6618 17.505 15.6596 17.519H10.2447C10.1698 16.5699 9.70253 15.8729 8.99859 15.2888C6.5737 13.2758 6.10818 9.60364 7.94117 7.0322L7.94118 7.03219C8.09438 6.81713 8.26888 6.62041 8.44641 6.42027C8.52633 6.33017 8.60687 6.23937 8.68636 6.1459L17.1079 5.89079M15.7134 17.2076C15.848 16.5059 16.2317 15.8768 16.7936 15.4372C18.0198 14.4493 18.7978 13.1873 19.0446 11.6285C19.3844 9.48263 18.7601 7.64372 17.2283 6.10724C17.1951 6.07389 17.1623 6.04372 17.1283 6.01239C17.105 5.99093 17.0811 5.96893 17.0561 5.945M15.7134 17.2076C15.7134 17.2077 15.7134 17.2079 15.7133 17.208L15.787 17.2221L15.7135 17.2073C15.7134 17.2074 15.7134 17.2075 15.7134 17.2076ZM17.0561 5.945L17.1079 5.89079M17.0561 5.945C17.0561 5.94502 17.0562 5.94505 17.0562 5.94507L17.1079 5.89079M17.0561 5.945C16.987 5.87912 16.9318 5.80059 16.9193 5.71078C16.9062 5.6172 16.9416 5.52785 17.0196 5.44791M17.1079 5.89079C16.9812 5.76992 16.9407 5.63472 17.0749 5.49862M17.0196 5.44791C17.0189 5.44863 17.0183 5.44936 17.0177 5.4501L17.0749 5.49862M17.0196 5.44791C17.05 5.41273 17.0879 5.3848 17.1305 5.36619C17.174 5.34719 17.2213 5.3384 17.2687 5.3405C17.3161 5.3426 17.3624 5.35553 17.4041 5.3783L17.3681 5.44408L17.4041 5.3783C17.4436 5.39991 17.4779 5.42984 17.5048 5.46598M17.0196 5.44791C17.0202 5.44726 17.0208 5.44661 17.0215 5.44597L17.0749 5.49862M17.0749 5.49862L17.5048 5.46598M17.5048 5.46598C17.5062 5.46792 17.5076 5.46987 17.509 5.47184L17.4478 5.51514L17.5003 5.46156C17.5018 5.46303 17.5033 5.46451 17.5048 5.46598ZM0.925 23.5753V23.7876V23.838L0.971611 23.857C1.1344 23.9236 1.30512 23.9687 1.47949 23.9912L1.47941 23.9918M0.925 23.5753L1.47941 23.9918M1.47941 23.9918L1.48904 23.9918L1.47941 23.9918ZM9.69038 20.722L9.61588 20.7306C9.67451 21.2358 9.98022 21.5799 10.4282 21.7924L10.429 21.7927C10.4655 21.8095 10.5086 21.8355 10.5428 21.8644C10.5804 21.8963 10.5926 21.9194 10.5939 21.928C10.6738 22.4591 10.9244 22.9485 11.3063 23.3225H3.4538C3.60294 23.073 3.80605 22.8595 4.0487 22.6983C4.32592 22.5141 4.64553 22.4041 4.97708 22.3789L4.97713 22.3794L4.98634 22.3776C5.02771 22.3692 5.07025 22.3685 5.11183 22.3756C5.36063 22.4513 5.55092 22.4233 5.70917 22.3162C5.86147 22.2131 5.97547 22.0416 6.08733 21.8559C6.75255 20.7514 8.12855 20.1997 9.37352 20.4777L9.37353 20.4777C9.46018 20.497 9.51185 20.5186 9.54594 20.5511C9.57816 20.5819 9.60425 20.6319 9.61589 20.7307L9.69038 20.722ZM9.69038 20.722C9.66485 20.5051 9.56897 20.4444 9.38986 20.4045L10.668 21.9167C10.6567 21.8424 10.5438 21.763 10.4603 21.7246C10.0303 21.5206 9.7454 21.1961 9.69038 20.722ZM10.1723 20.4191C10.1707 20.2166 10.1709 20.0139 10.1712 19.8053C10.1713 19.7249 10.1714 19.6437 10.1714 19.5612L10.1723 20.4191ZM10.1723 20.4191C10.1722 20.4984 10.1787 20.5776 10.1918 20.6558L10.1723 20.4191ZM16.2473 19.8659C16.2472 19.8917 16.2472 19.9175 16.2472 19.9433C16.2722 19.937 16.2972 19.9309 16.3222 19.9251C16.3222 19.8994 16.3223 19.8738 16.3223 19.8481C16.2973 19.8538 16.2723 19.8598 16.2473 19.8659ZM17.2481 15.8177L17.2955 15.8758C17.2955 15.8758 17.2956 15.8757 17.2956 15.8757L17.2481 15.8177ZM18.0116 19.8353C18.0115 19.8353 18.0114 19.8353 18.0114 19.8353L17.9962 19.9087L18.0117 19.8353C18.0117 19.8353 18.0117 19.8353 18.0116 19.8353ZM8.3371 5.72834C8.44077 5.70866 8.55526 5.68693 8.62438 5.73011L8.1607 5.84764C8.17098 5.83671 8.18112 5.82385 8.19136 5.81087C8.21709 5.77823 8.24339 5.74488 8.27381 5.73984C8.29409 5.73651 8.31535 5.73247 8.3371 5.72834ZM22.47 23.3225H14.6242C14.9459 22.9902 15.1886 22.6307 15.2724 22.1853L15.2727 22.1854L15.2734 22.1788C15.2837 22.0741 15.3224 21.9743 15.3853 21.8901C15.4482 21.806 15.5329 21.7407 15.6301 21.7014L15.6302 21.7015L15.6339 21.6998C16.0462 21.5062 16.2531 21.1185 16.304 20.6846L16.304 20.6846C16.3128 20.6087 16.3323 20.5751 16.3537 20.5552C16.378 20.5327 16.4158 20.5166 16.4862 20.4982C17.1523 20.3381 17.8525 20.4014 18.4793 20.6786C19.1062 20.9558 19.6251 21.4316 19.9566 22.033C20.0289 22.1693 20.1079 22.2732 20.2188 22.3351C20.3305 22.3976 20.4628 22.4108 20.6275 22.3919C21.3351 22.3106 21.9169 22.5841 22.3611 23.1521C22.3993 23.2077 22.4356 23.2645 22.47 23.3225ZM10.2464 19.6362H15.6461C15.6467 19.7277 15.6482 19.8178 15.6496 19.9069C15.6538 20.1592 15.6578 20.4032 15.6405 20.6476C15.6248 20.8032 15.5526 20.9474 15.4375 21.0529C15.3223 21.1585 15.1722 21.2177 15.0161 21.2192C13.6426 21.2286 12.2692 21.2286 10.8958 21.2192C10.7399 21.2159 10.5904 21.1563 10.4747 21.0512C10.359 20.9461 10.2849 20.8025 10.2663 20.6469L10.2664 20.6469L10.2658 20.6434C10.2534 20.5693 10.2472 20.4943 10.2473 20.4192L10.2473 20.4184C10.2457 20.2164 10.2459 20.0142 10.2462 19.8057C10.2463 19.7497 10.2464 19.6933 10.2464 19.6362ZM23.3711 23.3399C23.3692 23.3404 23.3673 23.3409 23.3654 23.3414L23.3847 23.4139L23.3759 23.3394C23.3743 23.3396 23.3727 23.3398 23.3711 23.3399ZM23.6987 23.656L23.7738 23.656C23.7738 23.6555 23.7737 23.6551 23.7737 23.6547C23.7737 23.6543 23.7737 23.6538 23.7737 23.6534L23.6987 23.656ZM23.3776 23.9975H23.3777V23.9225L23.3776 23.9975Z" fill="#6CCF00" stroke="#6CCF00" stroke-width="0.15"/>
<path d="M13.0715 0C15.2538 1.71961 16.1751 4.00115 16.0406 6.74361C16.0265 6.87541 16.0408 7.00871 16.0827 7.13445C16.1246 7.26018 16.1929 7.3754 16.2832 7.47225C17.4368 8.79355 17.8817 10.3352 17.615 12.0735C17.5949 12.2043 17.5081 12.3906 17.4091 12.4249C17.31 12.4593 17.1339 12.3593 17.0345 12.27C16.3521 11.6576 15.6815 11.0326 14.989 10.3963C14.8521 10.6363 14.7144 10.8518 14.6076 11.0817C14.5924 11.1706 14.6123 11.262 14.6631 11.3364C15.0512 11.9859 15.2342 12.7379 15.1881 13.4936C15.153 13.9638 15.0464 14.0374 14.6055 13.9009C14.3731 13.8289 14.0937 13.667 13.9133 13.7396C13.7499 13.8054 13.6912 14.1343 13.5877 14.3479C13.4841 14.5614 13.3962 14.7869 13.2727 14.9894C13.2014 15.1066 13.0755 15.2632 12.9705 15.266C12.8684 15.2688 12.728 15.1162 12.6648 14.9989C12.4807 14.6574 12.3275 14.2992 12.161 13.9481C12.1202 13.8621 12.0746 13.7782 12.0231 13.6776L11.2591 13.9172C10.9054 14.0277 10.7902 13.9566 10.7514 13.5843C10.6719 12.8119 10.8501 12.035 11.2581 11.3751C11.3113 11.3075 11.3397 11.2236 11.3387 11.1376C11.3376 11.0515 11.3071 10.9683 11.2522 10.9021C11.1466 10.7516 11.0669 10.582 10.9616 10.3968C10.8876 10.4585 10.8212 10.5096 10.7591 10.5663C10.1345 11.14 9.51415 11.7186 8.88247 12.2846C8.78864 12.3687 8.60952 12.4667 8.52948 12.4294C8.4718 12.3893 8.42309 12.3376 8.38647 12.2775C8.34985 12.2175 8.32612 12.1504 8.31679 12.0807C8.03797 10.2477 8.54288 8.65502 9.79489 7.2939C9.8676 7.21301 9.90844 7.10832 9.90979 6.99942C9.72889 4.21087 10.5961 1.86621 12.7963 0.0784841C12.8203 0.0546909 12.8417 0.0283785 12.8601 0L13.0715 0ZM10.9624 3.22988C10.8651 3.51437 10.7628 3.76864 10.691 4.03124C10.0316 6.44005 10.5494 8.66231 11.7695 10.7683C11.7958 10.8047 11.8296 10.835 11.8687 10.8571C11.9078 10.8792 11.9511 10.8926 11.9958 10.8964C12.6482 10.9064 13.3006 10.9064 13.9532 10.8964C13.9978 10.8926 14.0412 10.8792 14.0802 10.8571C14.1192 10.835 14.153 10.8047 14.1793 10.7683C15.2533 8.92004 15.7915 6.9509 15.4386 4.80379C15.3512 4.2722 15.1697 3.7561 15.0263 3.21362C13.6363 4.06414 12.3155 4.06133 10.9624 3.22988Z" fill="#6CCF00"/>
<path d="M24.4521 24C24.3998 23.9329 24.3024 23.8642 24.3047 23.7989C24.3093 23.6648 24.3259 23.4866 24.4117 23.409C24.6023 23.2364 24.7762 23.3834 24.9285 23.5222V24H24.4521Z" fill="#6CCF00"/>
<path d="M4.32672 18.7985C4.10752 18.3979 3.91819 18.0303 3.70614 17.6762C3.62967 17.5509 3.52466 17.4456 3.39974 17.3689C3.04701 17.1566 2.68112 16.9665 2.28906 16.7503C2.69146 16.5285 3.06501 16.332 3.42783 16.1172C3.53828 16.0499 3.63073 15.9566 3.6972 15.8455C3.90976 15.4826 4.10432 15.1093 4.32774 14.6998C4.54477 15.0983 4.73358 15.4653 4.94436 15.8193C5.02024 15.9446 5.12474 16.0499 5.24922 16.1266C5.60349 16.3393 5.97129 16.5294 6.37075 16.7489C6.02108 16.9427 5.70894 17.134 5.38071 17.2915C5.14933 17.3997 4.96427 17.5876 4.85908 17.8209C4.70192 18.1433 4.51706 18.4521 4.32672 18.7985Z" fill="#6CCF00"/>
<path d="M19.5703 16.7515C19.9176 16.5595 20.2342 16.3674 20.5653 16.2066C20.7883 16.1017 20.967 15.9207 21.0693 15.696C21.2275 15.3729 21.4111 15.0622 21.6083 14.7014C21.8291 15.105 22.0215 15.4754 22.2339 15.8339C22.3053 15.9519 22.404 16.051 22.5215 16.1228C22.8764 16.3342 23.2432 16.5253 23.654 16.751C23.3142 16.9374 23.0166 17.1146 22.7068 17.2662C22.4501 17.3828 22.2437 17.588 22.1255 17.8446C21.9799 18.1553 21.8007 18.4503 21.61 18.7999C21.443 18.4961 21.275 18.232 21.1482 17.9494C21.0069 17.6149 20.7414 17.3486 20.4078 17.2068C20.128 17.0816 19.8665 16.9144 19.5703 16.7515Z" fill="#6CCF00"/>
<path d="M3.65373 10.8344C3.47943 10.8509 3.30382 10.8475 3.1303 10.8241C3.02983 10.8002 2.95413 10.6704 2.86719 10.589C2.9503 10.5029 3.0283 10.3496 3.11741 10.3428C3.48448 10.3153 3.85311 10.3161 4.22005 10.3452C4.30265 10.3519 4.42214 10.5088 4.4321 10.6061C4.43912 10.6736 4.29703 10.8055 4.20473 10.8238C4.02181 10.8448 3.83732 10.8484 3.65373 10.8344Z" fill="#6CCF00"/>
<path d="M22.3079 10.8353C22.1327 10.8353 21.9572 10.8362 21.7818 10.8353C21.6131 10.8341 21.4914 10.7364 21.5197 10.5811C21.5379 10.5238 21.5699 10.4719 21.6129 10.43C21.6559 10.3881 21.7086 10.3575 21.7663 10.3409C22.1145 10.3121 22.4667 10.3242 22.8173 10.3303C22.9768 10.3331 23.0899 10.4135 23.0854 10.5891C23.0809 10.762 22.9726 10.8355 22.8077 10.8359C22.6429 10.8363 22.4745 10.8355 22.3079 10.8353Z" fill="#6CCF00"/>
<path d="M21.7645 5.71025C21.7152 5.77687 21.6567 5.83615 21.5908 5.8863C21.3227 6.05274 21.0475 6.20638 20.7737 6.36437C20.6182 6.454 20.4691 6.47166 20.3719 6.28653C20.2826 6.11676 20.3703 6.00486 20.5171 5.921C20.8059 5.75532 21.0892 5.57928 21.3831 5.42359C21.5828 5.31796 21.7765 5.43998 21.7645 5.71025Z" fill="#6CCF00"/>
<path d="M8.09434 1.75521C8.16398 1.79186 8.22599 1.84153 8.27703 1.90155C8.45755 2.19257 8.62275 2.49319 8.79292 2.79048C8.81529 2.81834 8.83135 2.85075 8.83997 2.88546C8.84858 2.92017 8.84956 2.95634 8.84283 2.99147C8.8361 3.0266 8.82182 3.05983 8.80099 3.08887C8.78016 3.1179 8.75327 3.14204 8.7222 3.1596C8.56759 3.25217 8.43623 3.18956 8.34788 3.03617C8.18115 2.74682 8.00779 2.46118 7.84999 2.16722C7.82192 2.12557 7.80625 2.07677 7.8048 2.02653C7.80335 1.97628 7.81618 1.92666 7.84181 1.88345C7.86743 1.84025 7.90478 1.80525 7.9495 1.78254C7.99422 1.75983 8.04445 1.75035 8.09434 1.75521Z" fill="#6CCF00"/>
<path d="M18.1907 2.01667C18.1141 2.15674 18.0619 2.25711 18.0057 2.35544C17.8811 2.59746 17.7419 2.8316 17.5888 3.05655C17.5302 3.13516 17.3698 3.13734 17.256 3.17447C17.2192 3.06065 17.1194 2.91674 17.1566 2.83838C17.3171 2.50603 17.5002 2.18519 17.7047 1.87814C17.7417 1.84041 17.7874 1.81232 17.8377 1.79632C17.8881 1.78032 17.9415 1.7769 17.9935 1.78634C18.0751 1.81002 18.1273 1.93716 18.1907 2.01667Z" fill="#6CCF00"/>
<path d="M5.6128 6.12457C5.61369 6.36425 5.44467 6.4919 5.26811 6.40074C4.93858 6.23196 4.6189 6.04452 4.31062 5.83931C4.272 5.79974 4.24417 5.75086 4.22982 5.69739C4.21546 5.64391 4.21507 5.58763 4.22866 5.53396C4.26779 5.48992 4.31732 5.45645 4.37271 5.43661C4.42809 5.41676 4.48756 5.41119 4.54565 5.42039C4.87667 5.58613 5.19887 5.76903 5.51092 5.96837C5.56888 6.00384 5.59314 6.09333 5.6128 6.12457Z" fill="#6CCF00"/>
<path d="M11.9924 8.63106C11.9954 8.43497 12.0563 8.24417 12.1674 8.08277C12.2785 7.92136 12.4348 7.79659 12.6165 7.7242C12.7983 7.6518 12.9973 7.63504 13.1886 7.67602C13.3798 7.71701 13.5546 7.8139 13.691 7.95447C13.8274 8.09503 13.9192 8.27297 13.9548 8.46581C13.9904 8.65865 13.9682 8.85775 13.8911 9.03797C13.8139 9.21818 13.6853 9.37143 13.5213 9.47837C13.3574 9.58531 13.1656 9.64114 12.97 9.63881C12.8396 9.6378 12.7107 9.61084 12.5908 9.55951C12.4708 9.50817 12.3623 9.43346 12.2713 9.33973C12.1804 9.24599 12.1089 9.13508 12.061 9.01344C12.0131 8.89179 11.9898 8.76182 11.9924 8.63106Z" fill="#6CCF00"/>
<path d="M13.9712 5.68096C13.9724 5.81253 13.9476 5.94303 13.898 6.06487C13.8485 6.18671 13.7753 6.29746 13.6827 6.39067C13.5901 6.48387 13.4799 6.55769 13.3586 6.6078C13.2373 6.65792 13.1073 6.68335 12.9761 6.6826C12.8449 6.68185 12.7152 6.65495 12.5944 6.60345C12.4737 6.55196 12.3644 6.4769 12.2728 6.38264C12.1813 6.28838 12.1094 6.17681 12.0612 6.05441C12.0131 5.93201 11.9897 5.80124 11.9924 5.66969C11.9912 5.53812 12.016 5.40762 12.0656 5.28578C12.1151 5.16394 12.1883 5.05319 12.2809 4.95998C12.3735 4.86677 12.4837 4.79296 12.605 4.74284C12.7263 4.69272 12.8563 4.6673 12.9875 4.66805C13.1187 4.66879 13.2484 4.6957 13.3692 4.74719C13.4899 4.79869 13.5992 4.87375 13.6908 4.96801C13.7823 5.06227 13.8542 5.17384 13.9024 5.29624C13.9505 5.41863 13.9739 5.54941 13.9712 5.68096Z" fill="#6CCF00"/>
</svg>
