<svg width="70" height="70" viewBox="0 0 70 70" fill="none" xmlns="http://www.w3.org/2000/svg">
<g clipPath="url(#clip0_10266_32910)">
<path d="M17.5003 61.2487C20.722 61.2487 23.3337 58.637 23.3337 55.4154C23.3337 52.1937 20.722 49.582 17.5003 49.582C14.2787 49.582 11.667 52.1937 11.667 55.4154C11.667 58.637 14.2787 61.2487 17.5003 61.2487Z" stroke="#102572" strokeWidth="5" strokeLinecap="round" strokeLinejoin="round"/>
<path d="M49.5833 61.2487C52.805 61.2487 55.4167 58.637 55.4167 55.4154C55.4167 52.1937 52.805 49.582 49.5833 49.582C46.3617 49.582 43.75 52.1937 43.75 55.4154C43.75 58.637 46.3617 61.2487 49.5833 61.2487Z" stroke="#102572" strokeWidth="5" strokeLinecap="round" strokeLinejoin="round"/>
<path d="M49.5837 49.5833H17.5003V8.75H11.667" stroke="#102572" strokeWidth="5" strokeLinecap="round" strokeLinejoin="round"/>
<path d="M58.3333 17.5L55.4167 37.9167H17.5" stroke="#102572" strokeWidth="5" strokeLinecap="round" strokeLinejoin="round"/>
<path d="M29.167 29.168L46.667 11.668" stroke="#102572" strokeWidth="5" strokeLinecap="round" strokeLinejoin="round"/>
<path d="M30.6253 14.5846C31.4307 14.5846 32.0837 13.9317 32.0837 13.1263C32.0837 12.3209 31.4307 11.668 30.6253 11.668C29.8199 11.668 29.167 12.3209 29.167 13.1263C29.167 13.9317 29.8199 14.5846 30.6253 14.5846Z" stroke="#102572" strokeWidth="5" strokeLinecap="round" strokeLinejoin="round"/>
<path d="M45.2083 29.1667C46.0137 29.1667 46.6667 28.5137 46.6667 27.7083C46.6667 26.9029 46.0137 26.25 45.2083 26.25C44.4029 26.25 43.75 26.9029 43.75 27.7083C43.75 28.5137 44.4029 29.1667 45.2083 29.1667Z" stroke="#102572" strokeWidth="5" strokeLinecap="round" strokeLinejoin="round"/>
</g>
<defs>
<clipPath id="clip0_10266_32910">
<rect width="70" height="70" fill="white"/>
</clipPath>
</defs>
</svg>
