<svg width="22" height="24" viewBox="0 0 22 24" fill="none" xmlns="http://www.w3.org/2000/svg">
<path d="M18.6247 23.5C18.2798 23.501 17.9382 23.4336 17.6196 23.3016C17.3009 23.1697 17.0116 22.9758 16.7685 22.7313L13.6725 19.6353C12.7939 19.8293 11.8788 19.7762 11.0286 19.4819C10.1783 19.1876 9.42617 18.6637 8.85548 17.9681C8.2848 17.2726 7.91787 16.4325 7.79537 15.5412C7.67287 14.6499 7.79959 13.742 8.16147 12.9183L8.60247 11.9133L11.7195 15.0303C11.8622 15.1666 12.052 15.2426 12.2493 15.2426C12.4467 15.2426 12.6365 15.1666 12.7792 15.0303C12.849 14.9607 12.9043 14.8781 12.9421 14.7872C12.9799 14.6962 12.9994 14.5987 12.9995 14.5002C12.9996 14.4017 12.9802 14.3041 12.9425 14.2131C12.9049 14.1221 12.8496 14.0394 12.78 13.9698L9.66297 10.852L10.668 10.411C11.4918 10.0494 12.3996 9.92284 13.2909 10.0455C14.1822 10.1681 15.0222 10.5351 15.7177 11.1059C16.4132 11.6766 16.9371 12.4287 17.2314 13.2789C17.5257 14.1291 17.5788 15.0442 17.385 15.9228L20.481 19.0188C20.8481 19.3859 21.0982 19.8536 21.1995 20.3629C21.3008 20.8721 21.2488 21.3999 21.0501 21.8796C20.8514 22.3593 20.5149 22.7692 20.0832 23.0577C19.6515 23.3461 19.1439 23.5001 18.6247 23.5Z" fill="#6CCF00"/>
<path d="M18.6247 23.5C18.2798 23.501 17.9382 23.4336 17.6196 23.3016C17.3009 23.1697 17.0116 22.9758 16.7685 22.7313L13.6725 19.6353C12.7939 19.8293 11.8788 19.7762 11.0286 19.4819C10.1783 19.1876 9.42617 18.6637 8.85548 17.9681C8.2848 17.2726 7.91787 16.4325 7.79537 15.5412C7.67287 14.6499 7.79959 13.742 8.16147 12.9183L8.60247 11.9133L11.7195 15.0303C11.8622 15.1666 12.052 15.2426 12.2493 15.2426C12.4467 15.2426 12.6365 15.1666 12.7792 15.0303C12.849 14.9607 12.9043 14.8781 12.9421 14.7872C12.9799 14.6962 12.9994 14.5987 12.9995 14.5002C12.9996 14.4017 12.9802 14.3041 12.9425 14.2131C12.9049 14.1221 12.8496 14.0394 12.78 13.9698L9.66297 10.852L10.668 10.411C11.4918 10.0494 12.3996 9.92284 13.2909 10.0455C14.1822 10.1681 15.0222 10.5351 15.7177 11.1059C16.4132 11.6766 16.9371 12.4287 17.2314 13.2789C17.5257 14.1291 17.5788 15.0442 17.385 15.9228L20.481 19.0188C20.8481 19.3859 21.0982 19.8536 21.1995 20.3629C21.3008 20.8721 21.2488 21.3999 21.0501 21.8796C20.8514 22.3593 20.5149 22.7692 20.0832 23.0577C19.6515 23.3461 19.1439 23.5001 18.6247 23.5Z" stroke="#6CCF00"/>
<path d="M16.0004 3.125H16H13.875L13.875 2.5L13.875 2.49963C13.8737 2.06914 13.7021 1.65666 13.3977 1.35226C13.0933 1.04786 12.6809 0.876286 12.2504 0.875H12.25L6.25 0.874999L6.24963 0.875001C5.81914 0.876286 5.40666 1.04786 5.10226 1.35226C4.79786 1.65666 4.62629 2.06914 4.625 2.49963V2.5V3.125L2.5 3.125L2.49963 3.125C2.06914 3.12629 1.65666 3.29786 1.35226 3.60226C1.04786 3.90666 0.876286 4.31914 0.875 4.74963V4.75L0.874999 20.5L0.875001 20.5004C0.876286 20.9309 1.04786 21.3433 1.35226 21.6477C1.65666 21.9521 2.06914 22.1237 2.49963 22.125H2.5H7.75H7.875V22V20.5V20.375H7.75H2.625V4.875H4.625V7V7.125H4.75H13.75H13.875V7V4.875H15.875V8.5V8.625H16H17.5H17.625V8.5V4.75V4.74963C17.6237 4.31914 17.4521 3.90666 17.1477 3.60226C16.8433 3.29786 16.4309 3.12629 16.0004 3.125Z" fill="#6CCF00" stroke="#6CCF00" stroke-width="0.25"/>
</svg>
