<svg width="13" height="7" viewBox="0 0 13 7" fill="none" xmlns="http://www.w3.org/2000/svg">
<path d="M11.9594 1.83894C12.3499 1.44842 12.3499 0.815253 11.9594 0.424729C11.5688 0.0342048 10.9357 0.0342048 10.5452 0.424729L11.9594 1.83894ZM7.42929 4.95482L6.72218 4.24771L7.42929 4.95482ZM0.0702863 1.83899L3.8939 5.66207L5.30801 4.24776L1.4844 0.42468L0.0702863 1.83899ZM8.13639 5.66192L11.9594 1.83894L10.5452 0.424729L6.72218 4.24771L8.13639 5.66192ZM3.8939 5.66207C5.0655 6.83351 6.96488 6.83344 8.13639 5.66192L6.72218 4.24771C6.33167 4.63822 5.69855 4.63824 5.30801 4.24776L3.8939 5.66207Z" fill="white"/>
</svg>
