<svg width="24" height="25" viewBox="0 0 24 25" fill="none" xmlns="http://www.w3.org/2000/svg">
<rect y="0.578125" width="24" height="24" rx="12" fill="#102572"/>
<path fill-rule="evenodd" clip-rule="evenodd" d="M18.1757 6.43469C16.6877 4.94429 14.7053 4.12349 12.5957 4.12109C8.24933 4.12109 4.70933 7.65869 4.70933 12.0075C4.70933 13.3971 5.07173 14.7555 5.76293 15.9507L4.64453 20.0379L8.82533 18.9411C9.97733 19.5699 11.2733 19.9011 12.5933 19.9011H12.5957C16.9421 19.9011 20.4797 16.3635 20.4821 12.0147C20.4845 9.90749 19.6661 7.92509 18.1757 6.43469ZM12.5981 18.5691H12.5957C11.4197 18.5691 10.2653 18.2523 9.25973 17.6547L9.01973 17.5131L6.53813 18.1635L7.20053 15.7443L7.04453 15.4971C6.38933 14.4531 6.04133 13.2483 6.04133 12.0075C6.04373 8.39309 8.98373 5.45309 12.6005 5.45309C14.3525 5.45309 15.9965 6.13709 17.2349 7.37549C18.4733 8.61389 19.1549 10.2627 19.1525 12.0123C19.1525 15.6291 16.2101 18.5691 12.5981 18.5691ZM16.1933 13.6587C15.9965 13.5603 15.0269 13.0827 14.8469 13.0179C14.6669 12.9531 14.5349 12.9195 14.4029 13.1163C14.2709 13.3131 13.8941 13.7571 13.7789 13.8891C13.6637 14.0211 13.5485 14.0379 13.3517 13.9395C13.1549 13.8411 12.5189 13.6323 11.7677 12.9603C11.1821 12.4371 10.7861 11.7915 10.6709 11.5947C10.5557 11.3979 10.6589 11.2899 10.7573 11.1915C10.8461 11.1027 10.9541 10.9611 11.0525 10.8459C11.1509 10.7307 11.1845 10.6491 11.2493 10.5171C11.3141 10.3851 11.2829 10.2699 11.2325 10.1715C11.1821 10.0731 10.7885 9.10349 10.6253 8.70749C10.4645 8.32349 10.3037 8.37629 10.1813 8.36909C10.0661 8.36429 9.93413 8.36189 9.80453 8.36189C9.67253 8.36189 9.45893 8.41229 9.27893 8.60909C9.09893 8.80589 8.59013 9.28349 8.59013 10.2531C8.59013 11.2227 9.29573 12.1611 9.39413 12.2907C9.49253 12.4227 10.7837 14.4123 12.7613 15.2667C13.2317 15.4707 13.5989 15.5907 13.8845 15.6819C14.3573 15.8331 14.7869 15.8115 15.1253 15.7611C15.5045 15.7035 16.2917 15.2835 16.4549 14.8251C16.6181 14.3643 16.6181 13.9707 16.5701 13.8891C16.5221 13.8075 16.3901 13.7595 16.1933 13.6587Z" fill="white"/>
</svg>
